<ttFont>
<head>
    <!-- Most of this table will be recalculated by the compiler -->
    <tableVersion value="1.0"/>
    <fontRevision value="2.0659942627"/>
    <checkSumAdjustment value="0x7bfd6579"/>
    <magicNumber value="0x5f0f3cf5"/>
    <flags value="00000000 00000011"/>
    <unitsPerEm value="1000"/>
    <created value="Wed Mar 23 16:05:44 2011"/>
    <modified value="Wed Mar 23 16:05:44 2011"/>
    <xMin value="-123"/>
    <yMin value="-315"/>
    <xMax value="1264"/>
    <yMax value="1101"/>
    <macStyle value="00000000 00000000"/>
    <lowestRecPPEM value="3"/>
    <fontDirectionHint value="2"/>
    <indexToLocFormat value="0"/>
    <glyphDataFormat value="0"/>
  </head>
          <CharString index="0">
            rmoveto
            31 -30 -8 11 -43 hhcurveto
            -33 -4 -7 -24 -23 hvcurveto
            -100 -107 rlineto
            -8 -8 -14 -14 -12 vvcurveto
            -16 54 -19 9 16 16 19 11 11 vhcurveto
            37 40 rlineto
            7 6 17 18 10 hhcurveto
            9 16 -18 -5 5 hvcurveto
            60 -59 rlineto
            -4 5 7 -9 9 hhcurveto
            28 69 34 5 8 -7 6 -6 5 hvcurveto
            endchar
          </CharString>
          <CharString index="1">
            331 197 -67 callsubr
            -60 17 -124 241 89 94 2 21 vhcurveto
            34 -8 26 44 vvcurveto
            35 -2 296 -21 58 vhcurveto
            140 -51 -137 -1 -32 -7 callsubr
            -37 callsubr
            -2 callsubr
            return
          </CharString>
          <CharString index="2">
            -81 callsubr
            -229 hmoveto
            -103 callsubr
            endchar
          </CharString>
          <CharString index="3">
            rmoveto
            -3 -5 -9 -14 -7 vvcurveto
            -6 7 -1 6 vhcurveto
            61 -6 144 166 24 vvcurveto
            30 -48 -7 -17 -45 0 5 -37 -20 vhcurveto
            return
          </CharString>
          <CharString index="4">
            48 41 28 52 52 -41 28 -48 -48 -41 -28 -52 -52 41 -28 48 hvcurveto
            return
          </CharString>
          <CharString index="5">
            -104 callsubr
            endchar
          </CharString>
          <CharString index="6">
            592 hmoveto
            30 43 -27 267 464 -258 143 -33 -27 callsubr
            143 hlineto
            -42 callsubr
            45 43 -17 -45 vhcurveto
            -114 -77 -100 -28 vvcurveto
            -15 29 3 9 vhcurveto
            return
          </CharString>
          <CharString index="7">
            274 -15 rmoveto
            -86 callsubr
            -134 -134 -120 -242 -160 74 -148 179 vhcurveto
            10 552 -45 callsubr
            return
          </CharString>
          <CharString index="8">
            406 -15 rmoveto
            5 callsubr
            257 -144 287 -187 -32 callsubr
            50 178 -65 callsubr
            return
          </CharString>
          <CharString index="9">
            hstem
            33 135 163 64 callsubr
            -106 callsubr
            return
          </CharString>
          <CharString index="10">
            rmoveto
            37 -20 0 -5 -45 hhcurveto
            -17 -48 7 -30 -24 144 -166 61 6 hvcurveto
            6 7 1 6 7 -9 14 -3 5 hvcurveto
            endchar
          </CharString>
          <CharString index="11">
            272 -15 rmoveto
            65 callsubr
            101 235 161 -77 173 -174 18 callsubr
            17 callsubr
            hvcurveto
            167 vmoveto
            -57 callsubr
            return
          </CharString>
          <CharString index="12">
            483 83 callsubr
            -9 -29 3 -16 hvcurveto
            -18 49 -91 -260 vvcurveto
            -274 -108 -13 -50 -59 -82 70 227 vhcurveto
            230 50 106 23 vvcurveto
            13 -12 0 -10 vhcurveto
            -139 hlineto
            -13 -38 -83 -320 -299 115 -145 188 214 90 177 294 360 -39 16 -20 hvcurveto
            return
          </CharString>
          <CharString index="13">
            81 callsubr
            212 124 vstem
            -100 callsubr
            return
          </CharString>
          <CharString index="14">
            rmoveto
            -3 -2 -17 -12 -5 -10 78 4 -84 -41 -26 -31 -4 vvcurveto
            -3 5 -2 3 58 122 48 115 52 -43 61 -56 -15 -12 -11 -8 -11 vhcurveto
            return
          </CharString>
          <CharString index="15">
            -12 callsubr
            33 callsubr
            hintmask 11011100
            -101 callsubr
            hintmask 11101100
            -74 callsubr
            return
          </CharString>
          <CharString index="16">
            -9 callsubr
            66 callsubr
            hintmask 10111000
            -44 callsubr
            hintmask 11011000
            -5 callsubr
            hintmask 10111000
            -84 callsubr
            return
          </CharString>
          <CharString index="17">
            hstem
            33 162 299 68 callsubr
            -95 callsubr
            return
          </CharString>
          <CharString index="18">
            0 callsubr
            hvcurveto
            -16 35 -154 -120 vvcurveto
            -215 -76 -10 -33 -86 1 152 56 vhcurveto
            189 46 100 -4 callsubr
            -300 -17 -286 77 -52 83 33 23 12 11 18 hvcurveto
            return
          </CharString>
          <CharString index="19">
            14 callsubr
            -98 callsubr
            return
          </CharString>
          <CharString index="20">
            27 callsubr
            -99 callsubr
            return
          </CharString>
          <CharString index="21">
            120 98 73 127 8 -3 52 -15 hvcurveto
            -14 0 -125 -164 hhcurveto
            -50 -76 34 47 hvcurveto
            104 322 -45 215 vvcurveto
            118 -93 62 -110 return
          </CharString>
          <CharString index="22">
            28 callsubr
            hstemhm
            31 callsubr
            hintmask 10111000
            -89 callsubr
            hintmask 01111000
            57 callsubr
            hintmask 10111000
            -8 callsubr
            return
          </CharString>
          <CharString index="23">
            12 callsubr
            -32 hhcurveto
            -28 -4 36 21 96 73 -53 callsubr
            -394 -20 callsubr
            return
          </CharString>
          <CharString index="24">
            108 -107 rlineto
            -31 30 8 -11 43 hhcurveto
            33 4 7 24 23 hvcurveto
            100 107 rlineto
            8 8 14 14 12 vvcurveto
            16 -54 19 -9 -16 -16 -19 -11 -11 vhcurveto
            -37 -40 rlineto
            -7 -6 -17 -18 -10 hhcurveto
            -9 -16 18 5 -5 hvcurveto
            endchar
          </CharString>
          <CharString index="25">
            hstem
            16 callsubr
            vstem
            -96 callsubr
            return
          </CharString>
          <CharString index="26">
            rmoveto
            -103 callsubr
            return
          </CharString>
          <CharString index="27">
            -82 25 callsubr
            -94 callsubr
            return
          </CharString>
          <CharString index="28">
            167 -41 callsubr
            37 vvcurveto
            12 -1 3 -42 vhcurveto
            -55 hlineto
            -33 -16 33 -342 -352 4 21 49 hvcurveto
            return
          </CharString>
          <CharString index="29">
            rmoveto
            -11 -15 -8 -13 0 -23 0 -23 8 -13 -15 flex1
            109 -165 rlineto
            -9 6 11 -21 14 hhcurveto
            10 13 9 17 27 hvcurveto
            30 19 19 9 15 vvcurveto
            15 -15 16 -10 12 vhcurveto
            -86 109 rlineto
            -5 6 -10 11 0 8 0 8 10 11 6 flex1
            86 109 rlineto
            10 12 15 16 15 vvcurveto
            15 -19 9 -30 19 vhcurveto
            17 -27 -13 9 -10 hhcurveto
            -14 -11 -21 -9 -6 hvcurveto
            return
          </CharString>
          <CharString index="30">
            rmoveto
            9 -6 -11 21 -14 hhcurveto
            -10 -13 -9 -17 -27 hvcurveto
            -30 -19 -19 -9 -15 vvcurveto
            -15 15 -16 10 -12 vhcurveto
            86 -109 rlineto
            5 -6 10 -11 0 -8 0 -8 -10 -11 -6 flex1
            -86 -109 rlineto
            -10 -12 -15 -16 -15 vvcurveto
            -15 19 -9 30 -19 vhcurveto
            -17 27 13 -9 10 hhcurveto
            14 11 21 9 6 hvcurveto
            109 165 rlineto
            11 15 8 13 0 23 0 23 -8 13 15 flex1
            return
          </CharString>
          <CharString index="31">
            62 51 48 62 62 -51 48 -63 -60 -50 -49 -60 -61 49 -50 62 hvcurveto
            return
          </CharString>
          <CharString index="32">
            39 callsubr
            -90 callsubr
            return
          </CharString>
          <CharString index="33">
            -102 676 rmoveto
            38 74 -130 -62 -63 callsubr
            return
          </CharString>
          <CharString index="34">
            239 hmoveto
            20 hlineto
            9 6 1 10 hvcurveto
            14 -50 165 256 193 53 167 10 vvcurveto
            19 -25 -3 -13 vhcurveto
            -108 -43 callsubr
            return
          </CharString>
          <CharString index="35">
            -12 33 36 -12 40 hhcurveto
            137 10 118 4 5 -5 8 -19 hvcurveto
            -21 14 -41 -60 hhcurveto
            -38 -39 17 15 -39 hvcurveto
            return
          </CharString>
          <CharString index="36">
            -13 3 callsubr
            166 64 callsubr
            529 23 callsubr
            vvcurveto
            249 42 119 -1 16 vhcurveto
            21 1 -65 13 -205 hhcurveto
            -92 -55 callsubr
            -3 -50 0 -50 -50 vvcurveto
            -329 1 17 30 15 hhcurveto
            107 hlineto
            -28 callsubr
            5 41 77 38 41 10 -39 hvcurveto
            -24 -13 -3 -311 vvcurveto
            -23 -1 -335 35 vhcurveto
            endchar
          </CharString>
          <CharString index="37">
            24 callsubr
            -87 callsubr
            return
          </CharString>
          <CharString index="38">
            -3 3 callsubr
            157 64 callsubr
            505 -41 callsubr
            32 vvcurveto
            12 -11 8 -22 vhcurveto
            -182 27 -10 -72 hhcurveto
            -16 -10 17 14 23 19 41 28 hvcurveto
            101 -1 -20 19 hhcurveto
            22 22 99 15 34 -126 0 -69 -30 callsubr
            50 callsubr
            47 hlineto
            28 32 -13 -25 hvcurveto
            -2 -25 -1 -53 -89 vvcurveto
            -352 4 21 49 vhcurveto
            endchar
          </CharString>
          <CharString index="39">
            -63 -15 167 385 118 -82 callsubr
            return
          </CharString>
          <CharString index="40">
            rmoveto
            -49 -2 -30 -59 -53 -49 33 56 61 62 50 59 48 -6 -42 -35 vhcurveto
            -298 -57 rmoveto
            return
          </CharString>
          <CharString index="41">
            hstem
            62 49 callsubr
            -73 callsubr
            return
          </CharString>
          <CharString index="42">
            rmoveto
            -106 -63 45 117 221 102 139 67 67 102 -139 -221 -117 -63 -45 -106 hvcurveto
            return
          </CharString>
          <CharString index="43">
            -257 319 128 -112 124 272 95 hstemhm
            16 118 99 100 -34 33 hintmask 10111000
            134 463 rmoveto
            29 199 54 149 vvcurveto
            85 -68 46 -88 -92 -59 -72 -31 -6 40 -66 6 vhcurveto
            13 26 80 68 hhcurveto
            40 14 -18 -34 hvcurveto
            -101 -217 -21 -206 vvcurveto
            -16 4 -16 21 vhcurveto
            hintmask 01111000
            16 36 16 32 hhcurveto
            15 20 -4 -4 20 hvcurveto
            hintmask 10110100
            -4 21 21 -4 15 hhcurveto
            41 54 42 60 57 -31 34 -5 -7 10 -14 -13 -30 -21 -8 -25 hvcurveto
            hintmask 01111000
            -17 -27 12 -21 -21 -16 -5 -5 hhcurveto
            hintmask 10111000
            -6 -6 3 6 hvcurveto
            endchar
          </CharString>
          <CharString index="44">
            -28 -16 -5 -35 hvcurveto
            -88 -97 -26 -18 hhcurveto
            -12 -7 7 12 73 107 159 54 hvcurveto
            return
          </CharString>
          <CharString index="45">
            43 3 32 -19 3 vhcurveto
            -89 hlineto
            -11 -25 3 -18 hvcurveto
            -16 11 -42 -50 vvcurveto
            -77 -27 -120 -40 -20 -98 110 117 vhcurveto
            30 9 31 14 vvcurveto
            21 -22 -3 -13 vhcurveto
            -82 hlineto
            -39 1 -2 -45 hvcurveto
            -278 174 -71 -42 vvcurveto
            -13 -30 -37 -115 -27 -2 -29 -12 vhcurveto
            return
          </CharString>
          <CharString index="46">
            hstem
            46 64 callsubr
            -79 callsubr
            return
          </CharString>
          <CharString index="47">
            115 0 131 555 137 hstemhm
            33 279 -264 158 200 279 -174 158 hintmask 11010100
            167 131 rmoveto
            hintmask 11100100
            -134 -131 279 95 hlineto
            hintmask 11010100
            -54 39 -52 116 170 vvcurveto
            156 59 110 96 101 49 -117 -142 -94 -13 -73 -20 -54 vhcurveto
            hintmask 11011000
            -19 -55 -26 -36 -27 -20 rrcurveto
            -95 279 131 -136 3 vlineto
            hintmask 11010100
            60 68 60 120 143 vvcurveto
            156 -97 202 -209 -191 -124 -173 -196 -141 60 -110 59 -69 vhcurveto
            endchar
          </CharString>
          <CharString index="48">
            -56 callsubr
            hintmask 11101100
            -72 callsubr
            hintmask 11011100
            22 callsubr
          </CharString>
          <CharString index="49">
            -17 -52 18 -494 -375 30 19 25 hvcurveto
            return
          </CharString>
          <CharString index="50">
            -101 -26 114 80 -36 callsubr
            hvcurveto
            return
          </CharString>
          <CharString index="51">
            rmoveto
            -86 -41 -73 -44 -16 20 2 10 hvcurveto
            5 -4 36 40 hhcurveto
            23 28 -11 -12 32 hvcurveto
            return
          </CharString>
          <CharString index="52">
            -62 -39 -62 -19 hvcurveto
            -45 -14 0 -67 -45 -26 callsubr
            -57 -30 hvcurveto
            return
          </CharString>
          <CharString index="53">
            rmoveto
            -76 callsubr
            return
          </CharString>
          <CharString index="54">
            41 69 hvcurveto
            98 30 -47 17 hhcurveto
            13 64 140 8 20 -36 -3 -12 hvcurveto
            return
          </CharString>
          <CharString index="55">
            -51 21 -21 163 135 342 -20 hstem
            31 callsubr
            vstem
            0 callsubr
            -16 36 -74 -1 -94 hvcurveto
            -132 -2 -74 -14 -33 hhcurveto
            -33 -52 23 101 hvcurveto
            98 46 90 -4 callsubr
            -149 -84 hvcurveto
            -244 vlineto
            -172 14 9 31 vhcurveto
            82 hlineto
            11 21 -2 16 hvcurveto
            11 -19 55 35 vvcurveto
            50 34 -2 62 vhcurveto
            32 22 39 11 44 -75 -66 91 hhcurveto
            72 31 -17 217 125 -1 179 -42 hvcurveto
            endchar
          </CharString>
          <CharString index="56">
            37 34 callsubr
            hstemhm
            16 187 -26 187 110 154 hintmask 11101000
            -48 callsubr
            hintmask 11011000
            -17 callsubr
            return
          </CharString>
          <CharString index="57">
            -257 308 128 280 95 hstemhm
            198 127 -110 118 hintmask 11010000
            72 811 rmoveto
            -12 -20 3 -16 -13 18 -90 10 hvcurveto
            hintmask 11100000
            17 49 21 37 hhcurveto
            11 16 -1 -16 hvcurveto
            -17 -110 -81 -21 vvcurveto
            -9 15 -3 8 vhcurveto
            hintmask 11010000
            63 -5 41 -24 -56 vvcurveto
            -21 -16 -26 -37 vhcurveto
            -44 -19 43 -14 hhcurveto
            -6 -62 -99 -5 -7 53 -60 94 106 63 77 94 hvcurveto
            116 -106 8 15 vvcurveto
            hintmask 11100000
            14 98 64 98 vvcurveto
            21 -22 -4 -16 vhcurveto
            endchar
          </CharString>
          <CharString index="58">
            -280 34 callsubr
            -66 callsubr
            return
          </CharString>
          <CharString index="59">
            505 832 -3 callsubr
            -98 6 callsubr
            -80 hlineto
            -45 -14 -1 -75 hvcurveto
            -265 228 -157 -35 vvcurveto
            return
          </CharString>
          <CharString index="60">
            -93 callsubr
            endchar
          </CharString>
          <CharString index="61">
            -207 426 118 214 95 hstem
            25 118 96 72 callsubr
            239 572 rmoveto
            -11 -4 -17 -33 -34 -25 14 20 28 33 30 39 28 -4 -16 -21 vhcurveto
            -23 -173 rmoveto
            58 88 1 13 hvcurveto
            20 -5 16 49 vvcurveto
            21 -2 221 -11 21 vhcurveto
            81 -44 -107 -16 -44 hhcurveto
            -60 -54 -35 -44 -26 23 -30 44 hvcurveto
            14 10 40 46 hhcurveto
            29 32 -8 -21 -19 -22 1 -19 -3 hvcurveto
            -73 -12 -94 -56 -76 vvcurveto
            -36 11 -102 180 vhcurveto
            endchar
          </CharString>
          <CharString index="62">
            rmoveto
            38 46 -27 -49 -51 -182 -40 -12 -13 -5 11 11 58 47 87 81 hvcurveto
            return
          </CharString>
          <CharString index="63">
            551 hmoveto
            -33 callsubr
            -42 58 80 99 74 37 51 hvcurveto
            return
          </CharString>
          <CharString index="64">
            hlineto
            -58 callsubr
            return
          </CharString>
          <CharString index="65">
            13 6 1 6 hvcurveto
            15 -65 85 79 vvcurveto
            114 145 16 91 return
          </CharString>
          <CharString index="66">
            hmoveto
            23 30 -6 32 hvcurveto
            9 -39 155 252 109 12 37 return
          </CharString>
          <CharString index="67">
            32 callsubr
            -61 callsubr
            return
          </CharString>
          <CharString index="68">
            -94 67 callsubr
            488 -20 hstem
            26 146 185 130 vstem
            26 23 rmoveto
            -23 1 -15 23 62 callsubr
            vhcurveto
            -62 callsubr
            return
          </CharString>
          <CharString index="69">
            128 vstem
            180 532 -77 callsubr
            return
          </CharString>
          <CharString index="70">
            22 -15 86 102 hhcurveto
            44 53 -27 -51 -33 -23 -5 -29 -5 hvcurveto
            return
          </CharString>
          <CharString index="71">
            79 28 112 99 99 28 -112 -79 -80 -26 -114 -101 return
          </CharString>
          <CharString index="72">
            rmoveto
            54 callsubr
          </CharString>
          <CharString index="73">
            488 622 rmoveto
            28 52 91 28 29 -103 77 -145 -203 -57 -143 -84 -85 24 -99 219 -68 hvcurveto
            58 -18 90 -30 -73 vvcurveto
            -62 -66 -33 -76 vhcurveto
            -215 17 203 -17 hhcurveto
            -10 -51 -50 -85 -159 144 -76 142 211 83 143 116 95 -43 101 -210 70 hvcurveto
            -55 19 -99 28 72 vvcurveto
            58 64 25 50 vhcurveto
            104 39 -90 25 hhcurveto
            return
          </CharString>
          <CharString index="74">
            12 25 -4 19 10 -67 169 -15 hvcurveto
            -24 -61 -66 -99 hhcurveto
            -84 return
          </CharString>
          <CharString index="75">
            2 callsubr
            -173 79 -145 202 hvcurveto
            return
          </CharString>
          <CharString index="76">
            hstem
            26 178 vstem
            397 hmoveto
            9 30 -1 15 16 -26 119 -18 hvcurveto
            -16 -14 -31 -117 hhcurveto
            -29 -12 2 20 100 192 188 33 62 hvcurveto
            11 20 1 87 12 vvcurveto
            35 -16 -4 -28 vhcurveto
            -301 hlineto
            -10 -31 4 -17 -12 21 -119 21 hvcurveto
            18 20 26 85 hhcurveto
            12 33 -1 -19 hvcurveto
            -29 -239 -204 -241 vvcurveto
            -33 24 5 26 vhcurveto
            return
          </CharString>
          <CharString index="77">
            -52 -55 callsubr
            -50 -3 -50 -50 vvcurveto
            -329 18 30 15 vhcurveto
            return
          </CharString>
          <CharString index="78">
            hstem
            16 224 104 260 vstem
            535 hmoveto
            34 11 6 9 5 -59 181 -19 hvcurveto
            -22 -39 -73 -104 hhcurveto
            -43 -54 17 44 hvcurveto
            126 364 365 120 vvcurveto
            23 -22 9 -17 vhcurveto
            -460 hlineto
            -7 -33 4 -13 -10 43 -156 25 hvcurveto
            19 25 57 105 hhcurveto
            29 33 -8 -35 hvcurveto
            -70 -328 -324 -235 vvcurveto
            -48 28 6 39 vhcurveto
            return
          </CharString>
          <CharString index="79">
            -10 callsubr
            18 20 -9 8 hhcurveto
            21 0 38 14 34 -1 27 -38 hvcurveto
            -13 -12 -5 -13 hhcurveto
            -15 -10 12 14 23 return
          </CharString>
          <CharString index="80">
            -44 -297 -199 -428 -130 14 -90 51 hvcurveto
            return
          </CharString>
          <CharString index="81">
            hhcurveto
            -38 -22 -9 -76 -18 -1 -13 13 hvcurveto
            11 10 12 18 hhcurveto
            45 -9 return
          </CharString>
          <CharString index="82">
            -93 callsubr
            192 -67 -47 callsubr
          </CharString>
          <CharString index="83">
            rmoveto
            69 54 53 63 67 -54 48 -71 -69 -52 -52 -62 -65 53 -52 70 hvcurveto
            62 vmoveto
            -32 -19 26 29 28 22 24 28 28 24 -23 -28 -31 -19 -25 -32 hvcurveto
            endchar
          </CharString>
          <CharString index="84">
            -357 251 128 hstem
            0 250 vstem
            194 251 rmoveto
            39 17 100 10 23 -30 -5 -16 hvcurveto
            -148 hlineto
            -39 -17 -100 15 callsubr
          </CharString>
          <CharString index="85">
            250 -15 rmoveto
            120 108 74 130 hvcurveto
            203 -292 -2 103 vvcurveto
            30 42 14 31 vhcurveto
            92 6 -77 26 hhcurveto
            23 56 81 19 20 -69 75 -125 -108 -98 -66 -122 hvcurveto
            -199 270 27 -103 vvcurveto
            -51 -48 -21 -41 vhcurveto
            -142 -25 151 -5 hhcurveto
            -8 -24 -60 -47 -117 105 -62 106 hvcurveto
            return
          </CharString>
          <CharString index="86">
            604 hmoveto
            25 30 -19 375 494 -47 -18 -22 hvcurveto
            -76 hlineto
            -19 -22 3 -14 hvcurveto
            -23 51 -166 -187 vvcurveto
            -14 2 -43 -10 -9 -5 13 5 -3 vhcurveto
            346 -187 -76 80 -38 hhcurveto
            -79 -43 callsubr
            93 hlineto
            9 19 -4 13 hvcurveto
            51 -41 102 282 vvcurveto
            return
          </CharString>
          <CharString index="87">
            hlineto
            -29 -55 -462 -134 hvcurveto
            13 callsubr
            return
          </CharString>
          <CharString index="88">
            -11 callsubr
            hintmask 11111000
            -83 callsubr
          </CharString>
          <CharString index="89">
            274 157 157 274 274 -157 157 -274 -274 -157 -157 -274 -274 157 -157 274 hvcurveto
            95 vmoveto
            -210 -126 47 callsubr
            47 callsubr
            -126 -210 -210 -126 -126 -210 hvcurveto
            endchar
          </CharString>
          <CharString index="90">
            -34 -67 -87 -120 vvcurveto
            -20 4 -38 27 vhcurveto
            116 hlineto
            15 31 -2 21 hvcurveto
            21 -6 21 22 316 264 65 315 vvcurveto
            39 -8 14 -40 vhcurveto
            return
          </CharString>
          <CharString index="91">
            -11 callsubr
            -83 callsubr
          </CharString>
          <CharString index="92">
            -207 435 128 195 95 hstem
            10 118 144 72 callsubr
            200 435 rmoveto
            95 95 61 151 96 -57 110 -133 -133 -57 -110 -96 -151 95 -61 95 hvcurveto
            128 vmoveto
            -55 -17 49 48 48 18 50 54 55 17 -50 -48 -48 -16 -49 -56 hvcurveto
            endchar
          </CharString>
          <CharString index="93">
            -30 -19 -17 -42 -24 13 -127 7 -75 hvcurveto
            -16 2 12 -15 15 hhcurveto
            15 12 15 16 2 hvcurveto
            7 75 13 127 24 vvcurveto
            42 -19 17 -30 vhcurveto
            return
          </CharString>
          <CharString index="94">
            rmoveto
            3 2 17 12 5 10 -78 -4 84 41 26 31 4 vvcurveto
            3 -5 2 -3 -58 -122 -48 -115 -52 43 -61 56 15 12 11 8 11 vhcurveto
            return
          </CharString>
          <CharString index="95">
            91 21 -21 316 135 225 171 0 -20 return
          </CharString>
          <CharString index="96">
            rmoveto
            4 -5 -7 9 -9 hhcurveto
            -28 -69 -34 -5 -8 7 -6 6 -5 hvcurveto
            return
          </CharString>
          <CharString index="97">
            18 14 -4 22 hvcurveto
            13 -37 266 132 vvcurveto
            39 -2 68 55 vhcurveto
            return
          </CharString>
          <CharString index="98">
            -10 0 4 callsubr
            194 118 return
          </CharString>
          <CharString index="99">
            57 -80 -56 105 hhcurveto
            72 26 -17 367 95 -1 210 -42 hvcurveto
            return
          </CharString>
          <CharString index="100">
            hhcurveto
            -92 -83 -48 -74 -43 35 -39 32 hvcurveto
            return
          </CharString>
          <CharString index="101">
            -257 327 499 hstem
            110 72 callsubr
            110 468 rmoveto
            -149 7 8 15 22 96 13 20 vhcurveto
            55 -22 126 82 94 18 75 12 vvcurveto
            16 -29 6 -23 -68 -62 -51 -14 vhcurveto
            -21 53 3 -51 -59 -7 -76 -89 vvcurveto
            endchar
          </CharString>
          <CharString index="102">
            39 38 -20 10 hhcurveto
            12 56 163 1 hvcurveto
            return
          </CharString>
          <CharString index="103">
            15 vvcurveto
            20 -27 -5 -13 vhcurveto
            -92 hlineto
            -42 -7 return
          </CharString>
          <CharString index="104">
            rmoveto
            -14 -26 4 -21 hvcurveto
            -8 9 -42 -32 vvcurveto
            -119 -114 -158 -29 -30 return
          </CharString>
          <CharString index="105">
            -112 -19 -124 -87 -126 vvcurveto
            return
          </CharString>
          <CharString index="106">
            rmoveto
            -17 116 11 -65 -35 -80 -11 -18 vvcurveto
            -9 12 -4 24 70 152 35 82 vhcurveto
            59 -75 2 21 return
          </CharString>
          <CharString index="107">
            374 640 rmoveto
            -11 -23 1 -13 return
          </CharString>
          <CharString index="108">
            -63 67 callsubr
            385 118 return
          </CharString>
          <CharString index="109">
            -187 -144 -287 -257 return
          </CharString>
          <CharString index="110">
            21 -21 536 104 85 128 hstem
            92 135 return
          </CharString>
          <CharString index="111">
            128 254 185 -165 118 return
          </CharString>
          <CharString index="112">
            202 79 145 173 return
          </CharString>
          <CharString index="113">
            129 143 vhcurveto
            17 9 53 8 vvcurveto
            28 -38 -2 -19 vhcurveto
            return
          </CharString>
          <CharString index="114">
            12 callsubr
            -52 hhcurveto
            -28 -3 36 21 96 92 -53 callsubr
            -370 hlineto
            -45 -4 6 return
          </CharString>
          <CharString index="115">
            -10 -5 9 10 hvcurveto
            14 9 12 10 vvcurveto
            23 -36 -5 -35 -77 -35 28 -453 -264 15 17 37 vhcurveto
            85 hlineto
            10 17 -1 14 hvcurveto
            12 -29 154 120 vvcurveto
            return
          </CharString>
          <CharString index="116">
            rmoveto
            14 32 13 23 12 vvcurveto
            21 -26 6 -15 -66 -12 -6 -118 -45 vhcurveto
            -239 -623 rlineto
            -8 -20 -24 -60 -19 vvcurveto
            -11 11 -5 10 53 17 50 24 11 vhcurveto
            return
          </CharString>
          <CharString index="117">
            -107 708 118 hstem
            115 270 vstem
            329 708 21 callsubr
            -168 11 callsubr
          </CharString>
          <CharString index="118">
            hlineto
            -39 -17 -90 15 callsubr
          </CharString>
          <CharString index="119">
            17 -33 4 -12 vhcurveto
            -84 -71 -47 return
          </CharString>
          <CharString index="120">
            5 -203 -16 -35 53 2 rrcurveto
            return
          </CharString>
          <CharString index="121">
            -87 0 118 419 118 return
          </CharString>
          <CharString index="122">
            -10 -23 30 5 16 hvcurveto
            endchar
          </CharString>
          <CharString index="123">
            21 124 254 124 return
          </CharString>
          <CharString index="124">
            -235 136 -101 115 return
          </CharString>
          <CharString index="125">
            -174 -77 -173 -161 return
          </CharString>
          <CharString index="126">
            -9 -25 -99 -108 hhcurveto
            -95 -46 81 97 84 37 136 103 hvcurveto
            81 -4 -74 23 hhcurveto
            37 22 58 30 57 -63 47 -87 -197 -87 -195 -172 return
          </CharString>
          <CharString index="127">
            -317 226 37 callsubr
            226 -35 callsubr
          </CharString>
          <CharString index="128">
            rmoveto
            39 17 90 10 23 -30 -5 -16 hvcurveto
            return
          </CharString>
          <CharString index="129">
            9 -21 -31 7 -24 hhcurveto
            endchar
          </CharString>
          <CharString index="130">
            hmoveto
            11 26 -5 17 hvcurveto
            13 -38 135 275 return
          </CharString>
          <CharString index="131">
            105 55 callsubr
            522 162 return
          </CharString>
          <CharString index="132">
            -15 135 417 118 return
          </CharString>
          <CharString index="133">
            127 -55 -94 41 hhcurveto
            63 40 33 58 108 -134 37 -87 return
          </CharString>
          <CharString index="134">
            hstem
            48 callsubr
            49 callsubr
            return
          </CharString>
          <CharString index="135">
            -51 -15 128 -72 72 527 -20 return
          </CharString>
          <CharString index="136">
            178 51 178 return
          </CharString>
          <CharString index="137">
            -376 11 -21 hstem
            -123 478 vstem
            -25 -10 rmoveto
            380 832 rlineto
            -98 hlineto
            -380 -832 rlineto
            endchar
          </CharString>
          <CharString index="138">
            69 callsubr
            194 135 return
          </CharString>
          <CharString index="139">
            -341 21 -21 640 -20 return
          </CharString>
          <CharString index="140">
            58 callsubr
            324 146 return
          </CharString>
          <CharString index="141">
            21 -21 82 callsubr
            return
          </CharString>
          <CharString index="142">
            -831 rlineto
            98 340 rmoveto
            487 -116 vlineto
            -109 -56 26 -90 69 34 rlineto
            3 -375 hlineto
            return
          </CharString>
          <CharString index="143">
            26 callsubr
            -243 -122 -237 -217 return
          </CharString>
          <CharString index="144">
            220 hstem
            33 224 vstem
            144 return
          </CharString>
          <CharString index="145">
            198 78 25 38 68 6 -89 -71 vhcurveto
            -203 -51 -133 -10 vvcurveto
            -19 22 3 13 vhcurveto
            return
          </CharString>
          <CharString index="146">
            66 55 callsubr
            669 -20 return
          </CharString>
          <CharString index="147">
            -9 -14 -146 -163 hhcurveto
            -87 -130 77 191 125 62 149 146 hvcurveto
            return
          </CharString>
          <CharString index="148">
            12 31 -5 20 5 -39 193 -19 hvcurveto
            -25 -56 -85 -92 hhcurveto
            -55 -60 33 138 hvcurveto
            return
          </CharString>
          <CharString index="149">
            20 -7 109 25 32 88 -168 -27 13 vhcurveto
            -316 156 -62 -62 69 hhcurveto
            return
          </CharString>
          <CharString index="150">
            441 hmoveto
            34 31 -20 393 263 -116 4 -28 hvcurveto
            -64 -46 -41 -17 hhcurveto
            return
          </CharString>
          <CharString index="151">
            rmoveto
            40 37 23 43 43 -37 26 -40 -40 -37 -26 -43 -43 37 -23 40 hvcurveto
            endchar
          </CharString>
          <CharString index="152">
            -45 4 -448 -47 100 callsubr
            35 hvcurveto
            return
          </CharString>
          <CharString index="153">
            -82 21 -21 131 128 278 118 return
          </CharString>
          <CharString index="154">
            126 210 210 126 return
          </CharString>
          <CharString index="155">
            25 162 338 return
          </CharString>
          <CharString index="156">
            162 vstem
            return
          </CharString>
          <CharString index="157">
            107 hlineto
            -10 callsubr
            return
          </CharString>
          <CharString index="158">
            -15 -54 callsubr
            return
          </CharString>
          <CharString index="159">
            -207 0 42.9799957275 761.040008545 42.9799957275 hstem
            return
          </CharString>
          <CharString index="160">
            7 13 -19 -18 16 vhcurveto
            -19 16 19 -24 18 hhcurveto
            77 153 157 156 return
          </CharString>
          <CharString index="161">
            -76 callsubr
            endchar
          </CharString>
          <CharString index="162">
            -15 178 return
          </CharString>
          <CharString index="163">
            rmoveto
            103 51 107 91 90 -50 107 -104 -103 -51 -107 -90 -91 50 -107 104 hvcurveto
            return
          </CharString>
          <CharString index="164">
            12 18 23 21 9 hhcurveto
            return
          </CharString>
          <CharString index="165">
            hstemhm
            33 162 return
          </CharString>
          <CharString index="166">
            -38 -21 45 45 46 19 69 40 38 21 -46 -45 -46 -19 -68 -40 hvcurveto
            return
          </CharString>
          <CharString index="167">
            1 callsubr
            hstem
            16 callsubr
            vstem
            return
          </CharString>
          <CharString index="168">
            5 callsubr
            375 -229 139 -127 hvcurveto
            return
          </CharString>
          <CharString index="169">
            220 226 284 293 -9 return
          </CharString>
          <CharString index="170">
            -207 21 -21 804.309997559 42.6900024414 hstem
            return
          </CharString>
          <CharString index="171">
            135 vstem
            return
          </CharString>
          <CharString index="172">
            115 136 return
          </CharString>
          <CharString index="173">
            hstemhm
            103 callsubr
            return
          </CharString>
          <CharString index="174">
            -15 167 return
          </CharString>
          <CharString index="175">
            146 vstem
            return
          </CharString>
          <CharString index="176">
            46 135 return
          </CharString>
          <CharString index="177">
            199 38 4 53 63 53 -45 -65 -83 -72 -85 -89 return
          </CharString>
          <CharString index="178">
            19 11 20 rlinecurve
            2 -2 rlineto
            -2 -23 0 -24 -28 vvcurveto
            return
          </CharString>
          <CharString index="179">
            118 vstem
            return
          </CharString>
          <CharString index="180">
            65 128 -108 -247 -180 -101 -51 -54 return
          </CharString>
          <CharString index="181">
            92 callsubr
            586 118 return
          </CharString>
          <CharString index="182">
            847 -20 hstem
            return
          </CharString>
          <CharString index="183">
            94 -47 95 hstemhm
            return
          </CharString>
          <CharString index="184">
            118 hstem
            50 156 277 49 callsubr
            return
          </CharString>
          <CharString index="185">
            160 hstemhm
            return
          </CharString>
          <CharString index="186">
            rmoveto
            94 -478 -94 vlineto
            return
          </CharString>
          <CharString index="187">
            135 hintmask 10111000
            return
          </CharString>
          <CharString index="188">
            hstem
            90 callsubr
            return
          </CharString>
          <CharString index="189">
            832 -20 return
          </CharString>
          <CharString index="190">
            832 rmoveto
            return
          </CharString>
          <CharString index="191">
            -196 -305 rlineto
            -78 198 vlineto
            return
          </CharString>
          <CharString index="192">
            0 197 -186 -21 115 92 return
          </CharString>
          <CharString index="193">
            6 -21 655 -20 hstem
            21 146 return
          </CharString>
          <CharString index="194">
            -140 0 118 404 118 return
          </CharString>
          <CharString index="195">
            102 21 -21 573 259 0 -20 return
          </CharString>
          <CharString index="196">
            118 hstem
            -25 550 vstem
            469 return
          </CharString>
          <CharString index="197">
            21 135 return
          </CharString>
          <CharString index="198">
            50 162 return
          </CharString>
          <CharString index="199">
            0 128 return
          </CharString>
          <CharString index="200">
            rmoveto
            -441 133 441 vlineto
            return
          </CharString>
          <CharString index="201">
            rmoveto
            381 831 rlineto
            -98 hlineto
            return
          </CharString>
          <CharString index="202">
            686 208 hstem
            return
          </CharString>
          <CharString index="203">
            hstem
            51 478 vstem
            return
          </CharString>
          <CharString index="204">
            123.669998169 return
          </CharString>
          <CharString index="205">
            hstemhm
            69 callsubr
            return
          </CharString>
          <CharString index="206">
            70 492 hstem
            return
          </CharString>
          <CharString index="207">
            -23 -4 -335 return
          </CharString>
          <CharString index="208">
            hstem
            91 callsubr
            return
          </CharString>
          <CharString index="209">
            118 hstemhm
            return
          </CharString>
          <CharString index="210">
            50 146 return
          </CharString>
        <CharString name=".notdef">
          -107 0 50 600 50 hstem
          0 50 400 50 vstem
          0 vmoveto
          500 700 -500 hlineto
          250 -305 rmoveto
          -170 255 rlineto
          340 hlineto
          -140 -300 rmoveto
          170 255 rlineto
          -510 vlineto
          -370 -45 rmoveto
          170 255 170 -255 rlineto
          -370 555 rmoveto
          170 -255 -170 -255 rlineto
          endchar
        </CharString>
        <CharString name="A">
          -92 callsubr
          endchar
        </CharString>
        <CharString name="AE">
          448 92 callsubr
          188 135 -69 185 -165 118 156 171 -133 118 15 -20 58 callsubr
          295 161 -145 146 hintmask 1100010101000000
          hintmask 1100100110000000
          378 676 rmoveto
          38 74 -125 -67 -63 callsubr
          -137 -676 rmoveto
          -42 callsubr
          vhcurveto
          hintmask 1100010101000000
          45 30 -12 -50 hvcurveto
          -144 -64 -70 -28 vvcurveto
          -15 29 3 9 vhcurveto
          529 hlineto
          -33 callsubr
          -44 58 80 hvcurveto
          hintmask 1001010101000000
          99 76 37 51 vhcurveto
          hintmask 1010010101000000
          -5 callsubr
          hintmask 1001010110000000
          7 callsubr
          -130 -28 hvcurveto
          hintmask 1100001110000000
          37 -21 -108 102 -36 hhcurveto
          -27 callsubr
          endchar
        </CharString>
        <CharString name="Aacute">
          -92 callsubr
          -62 236 -102 callsubr
        </CharString>
        <CharString name="Acircumflex">
          -12 callsubr
          142 112 33 callsubr
          hintmask 11011110
          -101 callsubr
          hintmask 11101110
          -74 callsubr
          62 363 -107 callsubr
        </CharString>
        <CharString name="Adieresis">
          -12 callsubr
          74 160 58 callsubr
          -29 29 callsubr
          -54 146 hintmask 1101110010000000
          -101 callsubr
          hintmask 1110101100000000
          -74 callsubr
          106 225 -105 callsubr
        </CharString>
        <CharString name="Agrave">
          -92 callsubr
          -41 378 -97 callsubr
        </CharString>
        <CharString name="Aring">
          -12 callsubr
          43 62 107 62 58 callsubr
          51 72 102 72 27 146 hintmask 1101011101000000
          -101 callsubr
          hintmask 1110011101000000
          -74 callsubr
          hintmask 1101111111000000
          -9 194 -24 callsubr
        </CharString>
        <CharString name="Atilde">
          -12 callsubr
          92 94 -47 95 33 callsubr
          hintmask 11010111
          -101 callsubr
          hintmask 11100111
          -74 callsubr
          -107 385 -56 callsubr
          hintmask 11011011
          -72 callsubr
          hintmask 11100111
          22 callsubr
        </CharString>
        <CharString name="B">
          55 74 callsubr
          66 callsubr
          224 162 -115 162 hintmask 11101000
          406 hmoveto
          164 59 95 98 hvcurveto
          172 -161 81 35 vvcurveto
          hintmask 11110000
          31 114 64 110 vvcurveto
          64 -27 82 -177 vhcurveto
          -259 -43 callsubr
          205 388 rmoveto
          6 11 18 11 13 hhcurveto
          hintmask 11101000
          27 88 -100 -71 -78 -73 -28 -72 -82 -38 19 152 33 16 6 27 15 hvcurveto
          31 138 rmoveto
          -11 -16 -26 -11 -12 hhcurveto
          -28 2 26 20 156 45 43 99 hvcurveto
          hintmask 11110000
          38 42 -12 -48 -41 -42 -49 -29 -21 hvcurveto
          endchar
        </CharString>
        <CharString name="C">
          38 55 callsubr
          542 142 hstem
          25 162 300.330001831 97 callsubr
          vstem
          358 -15 rmoveto
          140 114 86 148 10 -8 80 -14 hvcurveto
          40 callsubr
          36 callsubr
          -202 106 -206 227 hvcurveto
          endchar
        </CharString>
        <CharString name="Ccedilla">
          38 8 -21 718 142 hstemhm
          25 162 115 178 7.33000183105 97 callsubr
          hintmask 11110000
          186 -121 -1 callsubr
          vvcurveto
          28 53 37 24 16 vhcurveto
          69 32 61 67 109 vvcurveto
          10 -8 80 -14 vhcurveto
          40 callsubr
          hintmask 11101000
          36 callsubr
          -190 94 -194 200 -22 hvcurveto
          hintmask 11110000
          -61 -33 -72 -59 -16 vvcurveto
          endchar
        </CharString>
        <CharString name="D">
          63 0 128 586 77 callsubr
          364 hmoveto
          61 callsubr
          -170 -43 callsubr
          101 522 rmoveto
          63 14 129 70 73 callsubr
          -56 -66 26 225 vhcurveto
          endchar
        </CharString>
        <CharString name="E">
          -91 callsubr
          endchar
        </CharString>
        <CharString name="Eacute">
          -91 callsubr
          203 912 -102 callsubr
        </CharString>
        <CharString name="Ecircumflex">
          -9 callsubr
          147 112 66 callsubr
          hintmask 10111100
          -44 callsubr
          hintmask 11011100
          -5 callsubr
          hintmask 10111100
          -84 callsubr
          318 1049 -107 callsubr
        </CharString>
        <CharString name="Edieresis">
          -9 callsubr
          69 160 66 callsubr
          -101 29 callsubr
          hintmask 10111101
          -44 callsubr
          hintmask 11011101
          -5 callsubr
          hintmask 10111101
          -84 callsubr
          321 901 -81 callsubr
          hintmask 10111011
          -229 hmoveto
          -103 callsubr
          endchar
        </CharString>
        <CharString name="Egrave">
          -91 callsubr
          254 1054 -97 callsubr
        </CharString>
        <CharString name="Eth">
          63 92 callsubr
          238 108 240 77 callsubr
          -12 383 rmoveto
          -11 7 -6 8 vhcurveto
          47 -10 hlineto
          -276 6 -80 50 vhcurveto
          258 hlineto
          61 callsubr
          -173 hlineto
          -29 -30 -46 -312 -6 hvcurveto
          -48 hlineto
          -8 -7 -6 -11 hvcurveto
          218 65 rmoveto
          118 36 74 48 73 callsubr
          -55 -67 25 213 vhcurveto
          157 hlineto
          16 6 5 10 6 -2 6 -4 8 hvcurveto
          -22 50 rlineto
          18 -9 -8 5 -13 hhcurveto
          -121 hlineto
          endchar
        </CharString>
        <CharString name="Euro">
          -14 138 140 107 67 107 140 140 hstem
          94 163 vstem
          533 789 rmoveto
          15 -22 -57 21 -77 hhcurveto
          -163 -86 -102 -178 -25 hvcurveto
          -51 hlineto
          -33 -107 rlineto
          75 hlineto
          -1 -11 0 -9 0 -11 0 -15 0 -12 -9 flex1
          -42 hlineto
          -33 -107 rlineto
          86 hlineto
          -193 27 94 -85 151 hhcurveto
          84 52 17 15 20 hvcurveto
          146 vlineto
          -21 -23 -42 -19 -61 hhcurveto
          -80 -46 44 96 -12 hvcurveto
          142 hlineto
          34 107 rlineto
          -188 hlineto
          0 10 -1 14 0 12 0 11 1 11 9 flex1
          210 hlineto
          34 107 rlineto
          -233 hlineto
          95 13 44 45 81 hhcurveto
          65 40 -20 -23 22 hvcurveto
          endchar
        </CharString>
        <CharString name="F">
          -59 21 -21 380 118 216 118 101 callsubr
          vstem
          119 83 callsubr
          -58 callsubr
          118 hlineto
          9 25 -3 12 -1 hvcurveto
          1 11 -40 140 87 vvcurveto
          82 44 51 88 vhcurveto
          39 27 -14 10 hhcurveto
          17 39 156 5 17 -23 0 -11 hvcurveto
          -132 -6 -46 -65 hhcurveto
          -29 -3 19 60 96 73 -53 callsubr
          endchar
        </CharString>
        <CharString name="G">
          52 55 callsubr
          542 142 hstemhm
          25 162 291 148 -133.669998169 97 callsubr
          hintmask 11110000
          372 -15 rmoveto
          124 130 58 131 30 -23 244 -20 -12 -172 -62 -13 hvcurveto
          -26 79 -7 -81 vvcurveto
          -70 -67 -26 -62 -131 -31 115 109 139 55 179 158 vhcurveto
          hintmask 11101000
          26 callsubr
          -239 -131 -243 -236 hvcurveto
          hintmask 11110000
          -223 115 -160 232 vhcurveto
          endchar
        </CharString>
        <CharString name="H">
          104 21 -21 405 135 292 -20 101 callsubr
          303 68 callsubr
          629 hmoveto
          32 0 283 48 213 -49 288 -38 hvcurveto
          -131 hlineto
          -6 -30 3 -13 hvcurveto
          -13 88 -143 -95 vvcurveto
          -42 -39 11 -49 vhcurveto
          -136 0 -30 -31 hhcurveto
          -15 -9 24 25 hvcurveto
          106 68 145 13 vvcurveto
          12 -24 -3 -6 vhcurveto
          -136 hlineto
          -48 -20 -428 -73 -43 0 -288 28 hvcurveto
          147 hlineto
          8 24 -4 14 4 -2 7 -2 4 hvcurveto
          -28 66 -13 78 72 vvcurveto
          116 108 48 101 67 27 -23 -68 -99 -29 -94 -35 -92 vhcurveto
          -2 -4 -1 -5 -5 vvcurveto
          -16 27 1 10 vhcurveto
          endchar
        </CharString>
        <CharString name="I">
          -49 callsubr
          endchar
        </CharString>
        <CharString name="Iacute">
          -49 callsubr
          3 912 -102 callsubr
        </CharString>
        <CharString name="Icircumflex">
          -280 34 callsubr
          167 112 -66 callsubr
          137 1049 -107 callsubr
        </CharString>
        <CharString name="Idieresis">
          -280 34 callsubr
          89 78 callsubr
          -40 178 -76 162 -35 178 hintmask 11101000
          -73 callsubr
          hintmask 11110100
          161 901 -105 callsubr
        </CharString>
        <CharString name="Igrave">
          -49 callsubr
          34 1054 -97 callsubr
        </CharString>
        <CharString name="J">
          -207 67 callsubr
          -146 -21 847 -20 hstemhm
          188 162 hintmask 01110000
          167 83 callsubr
          -12 -18 4 -17 hvcurveto
          -12 51 -156 -274 vvcurveto
          hintmask 10110000
          -255 -31 30 -30 vhcurveto
          -31 -17 71 -16 hhcurveto
          -22 -41 -110 -47 -26 71 -55 78 15 186 -28 364 539 -32 -28 -20 hvcurveto
          endchar
        </CharString>
        <CharString name="K">
          45 34 callsubr
          101 callsubr
          220 187 vstem
          469 83 callsubr
          -23 -1 1 -4 -7 -22 rrcurveto
          -168 -48 -148 -172 -22 hhcurveto
          -20 3 52 11 hvcurveto
          144 49 143 1 vvcurveto
          19 -21 -3 -13 vhcurveto
          -101 -43 callsubr
          122 hlineto
          11 8 5 12 hvcurveto
          8 -34 178 40 vvcurveto
          57 86 74 24 17 88 -107 -227 5 vhcurveto
          -11 -3 -29 25 vhcurveto
          122 hlineto
          22 21 -6 27 hvcurveto
          293 -192 159 22 20 170 156 149 vvcurveto
          16 -22 -4 -10 vhcurveto
          endchar
        </CharString>
        <CharString name="L">
          -56 92 callsubr
          704 -20 hstem
          50 68 callsubr
          499 hmoveto
          41 callsubr
          276 116 215 22 vvcurveto
          18 -12 2 -7 vhcurveto
          -159 -20 callsubr
          endchar
        </CharString>
        <CharString name="Lslash">
          -56 92 callsubr
          267 115 -2 97 35 -20 212 -20 hstemhm
          55 141 -112 162 hintmask 10111100
          380 640 rmoveto
          hintmask 10111010
          -31 -34 -35 -35 hhcurveto
          -20 -14 6 14 hvcurveto
          45 66 110 42 vvcurveto
          11 -12 -1 -7 vhcurveto
          -159 hlineto
          -17 -33 -187 -47 hvcurveto
          hintmask 11011010
          -42 -19 -46 -49 vhcurveto
          hintmask 11011100
          -45 -14 -96 -19 -10 -2 -15 20 hvcurveto
          30 6 25 19 hhcurveto
          10 15 -5 -21 hvcurveto
          -13 -5 -86 -34 vvcurveto
          13 callsubr
          407 hlineto
          41 callsubr
          hintmask 10111100
          47 1 128 27 vhcurveto
          10 47 34 55 hhcurveto
          30 34 100 12 15 -8 5 -12 hvcurveto
          endchar
        </CharString>
        <CharString name="M">
          260 21 -21 614 218 hstem
          50 135 470 49 callsubr
          212 hmoveto
          12 24 -3 18 hvcurveto
          14 -63 180 261 vvcurveto
          21 -1 123 33 31 33 -101 -22 10 vhcurveto
          -205 89 -33 -94 84 hhcurveto
          67 -34 94 205 84 hvcurveto
          24 10 38 99 29 hhcurveto
          33 -3 -123 -21 hvcurveto
          -261 -57 -180 -14 vvcurveto
          -18 24 3 12 vhcurveto
          128 hlineto
          25 30 -19 375 494 -52 -18 -17 hvcurveto
          -78 hlineto
          -39 -15 1 -68 -56 hvcurveto
          -129 -106 -6 -73 -15 hhcurveto
          -20 -6 73 129 -94 hvcurveto
          67 -49 -14 0 -39 hhcurveto
          -92 -43 callsubr
          endchar
        </CharString>
        <CharString name="N">
          88 callsubr
          hstemhm
          50 135 339 80 callsubr
          -21 callsubr
          hintmask 11011000
          42 callsubr
          endchar
        </CharString>
        <CharString name="Ntilde">
          88 callsubr
          107 76 callsubr
          50 135 339 135 hintmask 10101110
          -21 callsubr
          hintmask 11001110
          42 callsubr
          -222 1061 -56 callsubr
          hintmask 10110110
          -72 callsubr
          hintmask 11001110
          22 callsubr
        </CharString>
        <CharString name="O">
          -70 callsubr
          endchar
        </CharString>
        <CharString name="OE">
          470 55 callsubr
          -163 4 callsubr
          165 162 -133 102 callsubr
          48 callsubr
          146 hintmask 01010111
          hintmask 10011011
          356 163 -65 callsubr
          50 -178 rmoveto
          41 50 6 31 41 hvcurveto
          hintmask 01010111
          -22 38 0 18 vhcurveto
          437 hlineto
          -33 callsubr
          -47 58 80 99 79 37 51 hvcurveto
          hintmask 01100111
          -5 callsubr
          hintmask 01010111
          7 callsubr
          -117 -26 hvcurveto
          hintmask 10011011
          69 -59 -57 57 -91 hhcurveto
          -32 callsubr
          endchar
        </CharString>
        <CharString name="Oacute">
          -70 callsubr
          -63 749 -102 callsubr
        </CharString>
        <CharString name="Ocircumflex">
          24 callsubr
          132 112 -87 callsubr
          91 886 -107 callsubr
        </CharString>
        <CharString name="Odieresis">
          24 callsubr
          54 78 callsubr
          25 162 -24 29 callsubr
          -45 162 hintmask 11110010
          -99 callsubr
          hintmask 11101100
          125 738 -105 callsubr
        </CharString>
        <CharString name="Ograve">
          -70 callsubr
          -42 891 -97 callsubr
        </CharString>
        <CharString name="Omega">
          -60 callsubr
        </CharString>
        <CharString name="Oslash">
          105 55 callsubr
          486 -20 56 162 27 callsubr
          118 46 rmoveto
          -66 93 72 5 23 hhcurveto
          100 hlineto
          5 callsubr
          132 -36 125 -46 89 hvcurveto
          87 109 rlineto
          9 11 12 11 17 vvcurveto
          20 -17 13 -18 -22 -13 -21 -13 -10 vhcurveto
          -66 -81 rlineto
          89 -62 -76 43 -73 hhcurveto
          2 callsubr
          -72 14 -64 32 -61 hvcurveto
          -73 -91 rlineto
          -6 -9 -8 -7 -17 vvcurveto
          -21 19 -14 21 15 11 16 9 7 vhcurveto
          441 545 rmoveto
          19 -65 8 -52 -75 vvcurveto
          -117 -63 -45 -106 -37 -52 7 23 -29 vhcurveto
          -44 57 rmoveto
          -4 33 -3 25 17 vvcurveto
          221 -2 104 139 67 hhcurveto
          46 42 -53 -40 23 hvcurveto
          endchar
        </CharString>
        <CharString name="Otilde">
          24 callsubr
          72 76 callsubr
          48 callsubr
          162 hintmask 11011100
          -99 callsubr
          -78 898 -59 callsubr
        </CharString>
        <CharString name="P">
          17 21 -21 714 118 101 callsubr
          250 49 callsubr
          243 427 rmoveto
          -29 -2 22 24 hvcurveto
          230 -1 59 11 72 hhcurveto
          60 60 -23 -69 -72 -167 -123 -52 hvcurveto
          -124 405 rmoveto
          -58 callsubr
          133 hlineto
          7 23 -3 12 hvcurveto
          6 -35 122 84 126 391 39 268 vvcurveto
          59 -34 119 -164 vhcurveto
          endchar
        </CharString>
        <CharString name="Q">
          116 67 callsubr
          553 142 101 callsubr
          99 31 168 49 callsubr
          630 -13 rmoveto
          -9 10 19 -20 14 hhcurveto
          18 -1 37 11 66 -24 44 -48 44 hvcurveto
          37 80 18 96 -1 66 rrcurveto
          199 -67 246 -244 -244 -67 -246 -199 -293 141 -124 170 55 86 22 51 45 vhcurveto
          -186 647 rmoveto
          135 14 -166 -98 -60 -4 -61 -18 -58 hvcurveto
          -64 34 -62 31 -20 59 rrcurveto
          3 0 14 -16 -11 -4 -48 -7 -77 39 -62 60 -45 vhcurveto
          -11 -17 -21 -1 -11 hhcurveto
          -90 -59 82 192 101 19 178 130 hvcurveto
          endchar
        </CharString>
        <CharString name="R">
          57 21 -21 329 118 267 102 callsubr
          91 callsubr
          243 162 -157 187 hintmask 11111000
          243 447 rmoveto
          -30 -1 40 21 hvcurveto
          173 -1 40 33 91 hhcurveto
          54 59 -23 -63 -92 -178 -89 -34 hvcurveto
          -124 385 rmoveto
          -58 callsubr
          116 hlineto
          10 25 -5 17 hvcurveto
          7 -37 137 76 vvcurveto
          56 73 41 30 vhcurveto
          hintmask 11110100
          58 80 -203 -113 -16 31 3 18 hvcurveto
          113 hlineto
          21 4 2 11 hvcurveto
          236 -180 131 28 vvcurveto
          hintmask 11111000
          28 150 49 160 vvcurveto
          85 -47 102 -186 vhcurveto
          endchar
        </CharString>
        <CharString name="S">
          39 67 callsubr
          560 135 hstem
          60 146 245 49 callsubr
          -34 callsubr
          endchar
        </CharString>
        <CharString name="Scaron">
          39 67 callsubr
          560 135 22 112 hstemhm
          60 146 245 162 hintmask 11011000
          -34 callsubr
          -239 441 -19 callsubr
        </CharString>
        <CharString name="T">
          19 21 -21 701 146 hstem
          203 49 callsubr
          371 hmoveto
          13 36 -5 22 hvcurveto
          18 -55 126 257 vvcurveto
          92 10 191 61 vhcurveto
          72 41 -83 17 hhcurveto
          11 49 95 44 47 -143 43 -161 -135 -135 -36 -19 -10 hvcurveto
          -15 -28 -27 -124 -31 vvcurveto
          -28 5 4 9 vhcurveto
          17 125 115 71 hhcurveto
          25 -5 -18 -30 hvcurveto
          -37 -44 -142 -223 vvcurveto
          -290 44 40 19 vhcurveto
          endchar
        </CharString>
        <CharString name="Thorn">
          17 0 287 -266 -21 584 128 -2 122 0 -20 hstemhm
          77 162 232 152 hintmask 01101110
          77 342 rmoveto
          -140 10 -140 6 -41 vhcurveto
          -13 2 5 -8 12 hhcurveto
          155 hlineto
          16 11 4 7 6 -2 9 -2 10 hvcurveto
          -13 51 rlineto
          -2 8 -2 10 13 vvcurveto
          12 6 7 9 6 vhcurveto
          141 104 rlineto
          115 85 79 78 121 vvcurveto
          116 -82 65 -89 vhcurveto
          -48 -48 -4 -48 hhcurveto
          hintmask 01010110
          -16 -17 1 1 -16 hvcurveto
          18 96 rlineto
          1 6 1 6 4 vvcurveto
          6 -4 4 -10 vhcurveto
          -141 hlineto
          -32 -15 -123 -224 hvcurveto
          163 -56 rmoveto
          hintmask 10101110
          -1 22 0 17 17 vvcurveto
          59 25 40 103 58 46 -21 -65 -87 -179 -124 -26 -15 -3 13 27 -2 vhcurveto
          endchar
        </CharString>
        <CharString name="U">
          -75 callsubr
          endchar
        </CharString>
        <CharString name="Uacute">
          -75 callsubr
          -278 80 -102 callsubr
        </CharString>
        <CharString name="Ucircumflex">
          39 callsubr
          167 112 -90 callsubr
          -173 217 -107 callsubr
        </CharString>
        <CharString name="Udieresis">
          39 callsubr
          89 160 58 callsubr
          -62 29 callsubr
          -46 146 hintmask 11110010
          -95 callsubr
          hintmask 11101100
          -130 69 -105 callsubr
        </CharString>
        <CharString name="Ugrave">
          -75 callsubr
          -287 222 -97 callsubr
        </CharString>
        <CharString name="V">
          37 -24 217 639 -20 hstem
          17 162 302 68 callsubr
          453 83 callsubr
          -12 -26 3 -19 hvcurveto
          -26 66 -60 -211 vvcurveto
          -179 -109 -147 -52 -24 -117 147 179 vhcurveto
          211 53 60 26 vvcurveto
          19 -35 -3 -12 vhcurveto
          -114 hlineto
          -18 -36 -5 -238 -455 283 -158 20 60 247 248 345 183 -35 80 -23 hvcurveto
          endchar
        </CharString>
        <CharString name="W">
          244 82 callsubr
          hstem
          16 158 196 135 195 64 callsubr
          687 83 callsubr
          -9 -12 1 -16 hvcurveto
          -13 34 -109 -106 vvcurveto
          -168 -70 -176 -38 -30 -57 160 223 vhcurveto
          111 19 59 17 vvcurveto
          15 -12 2 -13 vhcurveto
          -130 hlineto
          -11 -6 -1 -12 hvcurveto
          -13 18 -48 -133 vvcurveto
          -238 -82 -142 -31 -23 -60 115 246 vhcurveto
          132 29 70 10 vvcurveto
          13 -13 1 -10 vhcurveto
          -124 hlineto
          -21 -19 15 -274 -343 196 -254 19 hvcurveto
          44 102 264 33 33 102 -264 44 hhcurveto
          19 227 304 385 182 -30 -15 -26 hvcurveto
          endchar
        </CharString>
        <CharString name="X">
          29 34 callsubr
          hstemhm
          221 234 -31.5 187.5 -183 161 hintmask 11001000
          hintmask 11010000
          572 hmoveto
          33 6 -4 34 hvcurveto
          hintmask 11100000
          245 -156 111 47 vvcurveto
          hintmask 11001000
          55 134 44 241 vvcurveto
          38 1 22 -46 -1 vhcurveto
          -78 hlineto
          -12 -29 8 -27 hvcurveto
          -6 3 -54 -13 vvcurveto
          -84 -46 -125 -36 -21 -59 61 172 -13 vhcurveto
          -6 74 2 -9 -24 3 rrcurveto
          -110 hlineto
          -23 -26 4 -31 hvcurveto
          hintmask 11100000
          -245 155 -65 -62 -53 -196 -105 -260 vvcurveto
          -20 27 5 14 vhcurveto
          74 hlineto
          45 -5 0 53 7 hvcurveto
          204 20 93 61 18 hhcurveto
          hintmask 11010000
          19 70 -71 -170 15 hvcurveto
          3 -43 rlineto
          -40 4 9 6 35 hhcurveto
          endchar
        </CharString>
        <CharString name="Y">
          -51 callsubr
          endchar
        </CharString>
        <CharString name="Yacute">
          -51 callsubr
          -271 80 -102 callsubr
        </CharString>
        <CharString name="Ydieresis">
          37 34 callsubr
          89 78 callsubr
          16 187 -84 178 -120 187 -16 178 -52 154 hintmask 11110010
          hintmask 11110001
          -48 callsubr
          hintmask 11100101
          -17 callsubr
          hintmask 11101010
          -143 69 -105 callsubr
        </CharString>
        <CharString name="Z">
          13 74 callsubr
          -29 callsubr
          endchar
        </CharString>
        <CharString name="Zcaron">
          13 74 callsubr
          37 112 -29 callsubr
          153 1063 -16 callsubr
        </CharString>
        <CharString name="a">
          -88 callsubr
          endchar
        </CharString>
        <CharString name="a.superior">
          -46 callsubr
        </CharString>
        <CharString name="aacute">
          -88 callsubr
          194 535 -102 callsubr
        </CharString>
        <CharString name="acircumflex">
          14 callsubr
          131 112 -98 callsubr
          288 672 -107 callsubr
        </CharString>
        <CharString name="acute">
          -222 95 callsubr
          117 218 vstem
          129 719 -102 callsubr
        </CharString>
        <CharString name="adieresis">
          14 callsubr
          53 78 callsubr
          33 135 -111 29 callsubr
          -133 135 hintmask 11110010
          -106 callsubr
          hintmask 11101100
          342 524 -105 callsubr
        </CharString>
        <CharString name="ae">
          214 -15 135 -120 118 419 102 callsubr
          33 135 153 131 -121 135 198 124 hintmask 01110110
          hintmask 01111010
          580 537 -45 callsubr
          hintmask 01110110
          -249 -340 -67 callsubr
          -103 42 -81 198 164 -13 14 17 11 vhcurveto
          hintmask 10110110
          -38 48 49 -8 38 hhcurveto
          -86 callsubr
          -73 -60 -36 -46 -40 vhcurveto
          51 -41 -59 31 -89 -7 callsubr
          hintmask 01111010
          -37 callsubr
          hintmask 01110110
          -2 callsubr
          endchar
        </CharString>
        <CharString name="afii61289">
          -61 -12 127 661 115 hstem
          109 151 108 90 vstem
          472 214 rmoveto
          -50 -31 -44 -49 -52 hhcurveto
          -49 -35 40 75 -1 hvcurveto
          62 vlineto
          122 130 76 130 130 vvcurveto
          118 -45 91 -104 -109 -91 -95 -196 vhcurveto
          -292 vlineto
          -26 -28 -29 -23 -33 -30 36 -83 rcurveline
          18 14 19 17 16 13 rrcurveto
          1 -4 0 -5 -4 vvcurveto
          -97 8 53 -90 137 hhcurveto
          83 82 40 121 57 hvcurveto
          -271 439 rmoveto
          149 29 39 28 39 12 -30 -55 -71 -43 -96 -65 -85 vhcurveto
          endchar
        </CharString>
        <CharString name="agrave">
          -88 callsubr
          215 677 -97 callsubr
        </CharString>
        <CharString name="ampersand">
          351 -15 146 -146 178 184 128 254 102 callsubr
          91 callsubr
          -58 162 -97 230 9 146 hintmask 10111001
          295 328 rmoveto
          25 82 -128 -16 -28 -63 -25 -36 -42 -49 33 50 48 48 66 35 hvcurveto
          hintmask 10110101
          84 234 rmoveto
          -34 -29 70 29 44 30 24 43 43 26 -22 -43 -39 -53 -63 -26 hvcurveto
          hintmask 10111001
          -112 -577 rmoveto
          143 35 72 46 38 31 -72 91 hhcurveto
          107 62 97 108 hvcurveto
          hintmask 01110011
          8 0 9 -6 vhcurveto
          -10 -36 -44 -68 hhcurveto
          -27 -53 19 22 22 89 121 80 hvcurveto
          37 19 -29 21 hhcurveto
          23 19 41 23 58 -49 35 -56 hvcurveto
          -188 -60 -152 -32 hhcurveto
          -30 5 -44 72 27 vvcurveto
          hintmask 10110101
          57 155 46 148 vvcurveto
          57 -49 112 -152 -213 -36 -137 -63 vhcurveto
          hintmask 10110011
          -91 65 -61 -31 vvcurveto
          hintmask 10111001
          -44 -169 -55 -186 vvcurveto
          -113 75 -81 142 vhcurveto
          endchar
        </CharString>
        <CharString name="approxequal">
          143 88 -6 86 44 88 -7 87 hstemhm
          39 501 hintmask 01011000
          hintmask 01101000
          486 523 rmoveto
          -45 -27 -24 -35 -40 hhcurveto
          -29 -23 17 24 -37 hvcurveto
          hintmask 01011000
          15 -25 -34 24 -52 hhcurveto
          -68 -58 -52 -66 -30 hvcurveto
          54 -48 rlineto
          38 25 23 41 46 hhcurveto
          34 23 -16 -22 32 hvcurveto
          hintmask 10101000
          -31 48 28 -12 41 hhcurveto
          61 54 51 69 32 hvcurveto
          -54 -164 rmoveto
          -46 -28 -22 -34 -42 hhcurveto
          -30 -24 21 20 -34 hvcurveto
          hintmask 01011000
          15 -25 -33 24 -53 hhcurveto
          -68 -58 -52 -67 -30 hvcurveto
          54 -48 rlineto
          39 25 23 42 46 hhcurveto
          33 23 -17 -22 33 hvcurveto
          hintmask 10011000
          -30 47 29 -13 40 hhcurveto
          63 53 52 68 32 hvcurveto
          endchar
        </CharString>
        <CharString name="aring">
          14 callsubr
          22 62 107 62 hstemhm
          33 135 -41 72 102 72 -42 135 hintmask 11011001
          -106 callsubr
          hintmask 11110110
          217 493 -24 callsubr
        </CharString>
        <CharString name="asciicircum">
          -21 362 445 hstem
          43 499 vstem
          542 362 rmoveto
          -203 445 rlineto
          -93 hlineto
          -203 -445 rlineto
          100 hlineto
          148 344 146 -344 rlineto
          endchar
        </CharString>
        <CharString name="asciitilde">
          244 89 -7 87 hstemhm
          38 502 hintmask 01100000
          hintmask 10100000
          486 412 rmoveto
          -45 -27 -24 -34 -40 hhcurveto
          -29 -23 18 23 -37 hvcurveto
          hintmask 01100000
          14 -25 -34 25 -53 hhcurveto
          -68 -57 -53 -66 -31 hvcurveto
          55 -48 rlineto
          38 24 24 42 46 hhcurveto
          34 24 -17 -21 31 hvcurveto
          hintmask 10100000
          -31 48 27 -13 42 hhcurveto
          62 54 52 69 31 hvcurveto
          endchar
        </CharString>
        <CharString name="asterisk">
          40 479 374 hstem
          263 121 vstem
          374 720 rmoveto
          10 113 rlineto
          24 -16 -4 -19 vhcurveto
          -51 hlineto
          -18 -17 4 -32 hvcurveto
          10 -105 rlineto
          40 -93 -6 2 -6 hhcurveto
          -17 -23 -87 -13 -15 43 -5 83 -12 hvcurveto
          -71 -75 -9 -6 -9 vvcurveto
          -13 77 -48 12 16 4 21 71 41 vhcurveto
          -74 42 3 -18 14 hhcurveto
          9 81 51 11 8 -12 10 -68 71 hvcurveto
          83 13 43 4 18 vvcurveto
          10 -28 87 -13 -12 -55 -19 -23 -37 vhcurveto
          endchar
        </CharString>
        <CharString name="at">
          266 -160 74 136 86 -86 125 242 86 126 72 hstemhm
          46 89 98 127 155 82 151 85 hintmask 1101111110000000
          591 -39 rmoveto
          -32 -52 -58 -15 -61 hhcurveto
          -155 -130 124 204 239 180 148 149 185 99 -125 -163 -151 -68 -54 -43 hvcurveto
          -36 1 -14 35 16 90 36 208 rcurveline
          19 -32 -56 14 -53 hhcurveto
          -156 -109 -125 -165 hvcurveto
          hintmask 1011111110000000
          -97 52 -66 73 69 56 51 60 29 vhcurveto
          3 hlineto
          hintmask 1101111110000000
          -69 5 35 -42 62 hhcurveto
          117 99 104 187 191 -119 169 -236 -270 -162 -221 -244 -232 144 -164 215 79 62 12 40 70 hvcurveto
          -120 406 rmoveto
          hintmask 1011111110000000
          -63 -13 -34 -60 -38 hhcurveto
          -37 -14 33 41 97 59 71 56 16 19 -4 -4 8 hvcurveto
          endchar
        </CharString>
        <CharString name="atilde">
          14 callsubr
          71 76 callsubr
          33 135 163 135 hintmask 11011100
          -106 callsubr
          149 684 -59 callsubr
        </CharString>
        <CharString name="b">
          -71 0 167 393 72 -72 95 hstemhm
          47 135 198 80 callsubr
          259 167 rmoveto
          -26 -51 -4 216 146 14 35 71 42 71 -40 -164 -74 -23 -115 -98 hvcurveto
          -171 686 rmoveto
          45 callsubr
          177 hlineto
          76 53 44 34 29 hvcurveto
          73 83 29 92 115 vvcurveto
          211 -119 76 -85 -21 -20 -7 -5 -17 vhcurveto
          hintmask 11011000
          -6 -16 -14 -5 -11 hhcurveto
          -19 -3 16 16 hvcurveto
          59 30 100 8 vvcurveto
          22 -24 0 -12 vhcurveto
          endchar
        </CharString>
        <CharString name="backslash">
          -245 -49 902 hstem
          10 342 vstem
          352 -49 rmoveto
          -246 902 rlineto
          -96 hlineto
          245 -902 rlineto
          endchar
        </CharString>
        <CharString name="bar">
          -266 -315 1261 hstem
          103 133 vstem
          103 946 rmoveto
          -1261 133 1261 vlineto
          endchar
        </CharString>
        <CharString name="braceleft">
          52 callsubr
          99 72 callsubr
          15 423 rmoveto
          -20 84 48 -274 vvcurveto
          -187 60 10 65 22 129 -5 17 vhcurveto
          65 -158 -87 175 57 12 42 61 67 -66 21 10 10 66 21 67 61 -12 42 58 175 158 -87 65 vvcurveto
          17 -129 -5 -22 -65 -60 10 -187 vhcurveto
          -275 -84 48 -20 vvcurveto
          endchar
        </CharString>
        <CharString name="braceright">
          52 callsubr
          183 72 callsubr
          385 423 rmoveto
          20 -84 -48 275 vvcurveto
          187 -60 -10 -65 -22 -129 5 -17 vhcurveto
          -65 158 87 -175 -58 -12 -42 -61 -67 66 -21 -10 -10 -66 -21 -67 -61 12 -42 -57 -175 -158 87 -65 vvcurveto
          -17 129 5 22 65 60 -10 187 vhcurveto
          274 84 -48 20 vvcurveto
          endchar
        </CharString>
        <CharString name="bracketleft">
          63 callsubr
          75 72 callsubr
          208 hmoveto
          11 127 -5 17 hvcurveto
          78 -153 -160 505 482 157 -160 78 vvcurveto
          17 -131 -5 -11 vhcurveto
          -72 hlineto
          -65 4 -442 -47 100 callsubr
          55 hvcurveto
          endchar
        </CharString>
        <CharString name="bracketright">
          63 callsubr
          207 72 callsubr
          274 hmoveto
          55 -4 335 23 47 4 442 -65 hvcurveto
          -72 hlineto
          -11 -131 5 -17 hvcurveto
          -78 157 160 -482 -505 -157 160 -78 vvcurveto
          -17 131 5 11 vhcurveto
          endchar
        </CharString>
        <CharString name="breve">
          -207 721 95 hstem
          30 340 vstem
          210 721 rmoveto
          107 53 80 30 30 -3 7 -17 -20 -18 -13 -10 -11 hvcurveto
          -12 -14 -25 -17 -32 hhcurveto
          -32 -24 13 16 -15 hvcurveto
          11 -10 -24 12 -35 hhcurveto
          -32 -28 -12 -25 -45 63 -65 117 hvcurveto
          endchar
        </CharString>
        <CharString name="brokenbar">
          -266 -220 441 -441 1072 -441 441 hstemhm
          103 133 hintmask 01010000
          hintmask 10110000
          103 852 93 callsubr
          -133 -631 93 callsubr
          endchar
        </CharString>
        <CharString name="bullet">
          -207 200 400 hstem
          0 400 vstem
          200 200 rmoveto
          115 85 85 115 115 -85 85 -115 -115 -85 -85 -115 -115 85 -85 115 hvcurveto
          endchar
        </CharString>
        <CharString name="c">
          -119 -15 154 398 118 81 callsubr
          vstem
          257 -15 rmoveto
          118 79 74 120 41 -10 18 -5 hvcurveto
          19 callsubr
          -146 70 -157 166 hvcurveto
          endchar
        </CharString>
        <CharString name="caron">
          -57 646 112 -112 207 hstemhm
          83 384 hintmask 01100000
          201 840 -11 callsubr
          hintmask 10100000
          -83 callsubr
        </CharString>
        <CharString name="ccedilla">
          -119 13 -21 545 118 81 callsubr
          57 178 vstem
          97 -99 -1 callsubr
          vvcurveto
          26 41 23 13 13 vhcurveto
          53 32 31 58 75 vvcurveto
          41 -10 18 -5 vhcurveto
          19 callsubr
          -128 54 -136 125 -32 hvcurveto
          -53 -33 -50 -45 -13 vvcurveto
          endchar
        </CharString>
        <CharString name="cedilla">
          -107 -257 280 hstem
          229 178 vstem
          113 -109 -1 callsubr
          31 58 27 10 vvcurveto
          20 -20 -10 -60 2 vhcurveto
          -55 -2 -142 -107 -22 vvcurveto
          endchar
        </CharString>
        <CharString name="cent">
          12 814 -724 145 388 117 hstemhm
          73 135 68 72 hintmask 10011000
          208 420 rmoveto
          68 24 101 63 37 vhcurveto
          -6 -77 -13 -76 -77 vvcurveto
          -45 3 -45 1 -45 vhcurveto
          -48 28 -24 61 70 vvcurveto
          hintmask 01111000
          283 -79 rmoveto
          -9 -20 -94 -102 hhcurveto
          -4 34 -8 38 39 vvcurveto
          73 14 114 8 90 vhcurveto
          38 29 -69 16 hhcurveto
          37 17 58 30 52 -62 46 -50 -4 -1 4 8 hvcurveto
          6 10 15 15 vvcurveto
          14 -9 12 -15 -15 -24 -4 -10 -15 vhcurveto
          -13 -12 -2 -49 -17 hhcurveto
          -41 -177 -77 -282 -214 124 -85 64 20 5 -10 -9 3 hvcurveto
          -17 4 6 -44 17 hhcurveto
          29 53 13 17 hvcurveto
          13 -25 21 10 vvcurveto
          4 8 12 4 10 111 44 136 41 -10 18 -5 vhcurveto
          endchar
        </CharString>
        <CharString name="circumflex">
          -57 691 207 -112 112 hstemhm
          83 384 hintmask 10100000
          hintmask 01100000
          346 856 -107 callsubr
        </CharString>
        <CharString name="colon">
          -317 -15 220 230 37 callsubr
          51 callsubr
          450 vmoveto
          54 callsubr
        </CharString>
        <CharString name="comma">
          -317 -64 276 hstem
          103 49 callsubr
          45 126 -47 callsubr
        </CharString>
        <CharString name="copyright">
          321 -15 95 78 118 305 95 76 95 hstem
          33 95 120 118 182.36000061 78.6399993896 173 95 vstem
          464 158 rmoveto
          91 87 52 89 17 -5 48 -9 hvcurveto
          -6 -22 -88 -106 hhcurveto
          -56 -72 35 115 75 27 80 95 hvcurveto
          83 -36 -56 27 hhcurveto
          41 24 20 44 64 -85 23 -57 -158 -79 -143 -130 -121 69 -124 147 hvcurveto
          -173 vmoveto
          -18 callsubr
        </CharString>
        <CharString name="currency">
          -10 159 91 308 91 hstem
          88 92 237 93 vstem
          536 167 rmoveto
          -77 83 rlineto
          31 37 20 60 56 vvcurveto
          57 -18 60 -32 36 vhcurveto
          76 80 -56 56 -67 -83 rlineto
          31 -34 -38 9 -43 hhcurveto
          -39 -40 -10 -31 -34 hvcurveto
          -66 82 -58 -54 75 -80 rlineto
          -31 -36 -17 -60 -57 vvcurveto
          -64 21 -54 26 -36 vhcurveto
          -75 -82 58 -53 67 84 rlineto
          -32 35 39 -7 39 hhcurveto
          38 40 10 28 34 hvcurveto
          70 -83 rlineto
          -181 444 rmoveto
          68 50 -65 -90 -89 -50 -64 -68 -69 -50 63 90 90 51 65 66 hvcurveto
          endchar
        </CharString>
        <CharString name="d">
          -65 0 146 414 72 -72 95 hstemhm
          90 callsubr
          205 80 callsubr
          267 146 rmoveto
          -85 -26 107 69 182 98 56 43 37 27 -12 -176 -72 14 -154 -108 hvcurveto
          198 -146 rmoveto
          35 -4 335 23 47 4 448 -45 hvcurveto
          -104 hlineto
          -10 -25 0 -14 hvcurveto
          hintmask 11011000
          -38 25 -36 -81 vvcurveto
          -16 -3 -36 -20 vhcurveto
          hintmask 10111000
          -14 -22 23 -21 hhcurveto
          -88 -152 -125 -229 -202 98 -99 112 hvcurveto
          endchar
        </CharString>
        <CharString name="dagger">
          -25 464 136 241 -20 hstem
          218.5 142.5 vstem
          213 841 rmoveto
          11 -246 -183 10 rlineto
          -146 vlineto
          183 10 -11 -530 rlineto
          154 hlineto
          -12 530 184 -10 rlineto
          146 vlineto
          -184 -10 12 246 rlineto
          endchar
        </CharString>
        <CharString name="daggerdbl">
          -25 164 129.5 191 130.5 226 -20 hstemhm
          219.5 136 -131.5 127 hintmask 11101000
          hintmask 11110000
          216 841 rmoveto
          8 -231 -183 10 rlineto
          -141 vlineto
          hintmask 11101000
          183 11 rlineto
          -202 vlineto
          -183 11 rlineto
          -140 vlineto
          hintmask 11110000
          182 10 -7 -230 rlineto
          144 hlineto
          -9 230 189 -10 rlineto
          140 vlineto
          hintmask 11101000
          -189 -11 rlineto
          202 vlineto
          189 -11 rlineto
          141 vlineto
          hintmask 11110000
          -189 -10 9 231 rlineto
          endchar
        </CharString>
        <CharString name="degree">
          -193 469 60 247 61 hstem
          41 74 177 75 vstem
          202 837 rmoveto
          -86 -75 -71 -113 -117 75 -67 86 90 75 67 117 96 -60 88 -103 hvcurveto
          -1 -61 rmoveto
          61 28 -54 -71 -72 -32 -50 -56 -54 -35 52 73 72 34 50 53 hvcurveto
          endchar
        </CharString>
        <CharString name="dieresis">
          -40 708 160 hstem
          80 29 callsubr
          vstem
          398 708 -105 callsubr
        </CharString>
        <CharString name="divide">
          42 154 86 94 86 154 hstem
          222 138 cntrmask 11100000
          293 462 rmoveto
          38 30 35 42 40 -30 37 -38 -35 -34 -37 -40 -42 34 -35 33 hvcurveto
          238 -180 79 callsubr
          241 -86 rmoveto
          -40 -30 -34 -42 -41 30 -37 40 34 34 37 41 42 -34 34 -33 hvcurveto
          endchar
        </CharString>
        <CharString name="dollar">
          0 167 528 180 hstemhm
          90 callsubr
          87 72 -68 72 105 135 hintmask 11110100
          315 297 rmoveto
          20 -2 19 22 32 57 -51 -39 -43 -32 -36 -48 -29 0 16 23 vhcurveto
          -72 384 rmoveto
          -29 -3 -37 -15 -19 -50 40 46 41 22 44 45 25 -5 -20 -29 vhcurveto
          -431 vmoveto
          -20 3 -28 -30 vhcurveto
          -66 -25 59 -38 hhcurveto
          -18 -34 -135 -23 hvcurveto
          hintmask 11101100
          -19 105 -49 56 34 16 -10 -33 1 vhcurveto
          -22 1 15 5 19 hhcurveto
          21 16 -5 25 24 9 16 22 117 92 96 142 123 -76 76 -117 41 hvcurveto
          hintmask 11110100
          -48 18 -3 15 47 vvcurveto
          87 vlineto
          16 -4 34 25 vhcurveto
          57 25 -41 24 hhcurveto
          14 40 117 8 23 -104 18 -16 3 hvcurveto
          -30 5 -35 -4 27 vvcurveto
          15 2 9 -20 -18 -33 2 -22 -1 vhcurveto
          -1 -26 -11 -4 -19 -4 rrcurveto
          -117 -22 -72 -90 -108 vvcurveto
          -109 74 -68 99 -36 vhcurveto
          51 -18 -2 -11 -51 vvcurveto
          endchar
        </CharString>
        <CharString name="dotaccent">
          -107 708 160 hstem
          161 178 vstem
          250 708 -81 callsubr
          endchar
        </CharString>
        <CharString name="dotlessi">
          -40 callsubr
          endchar
        </CharString>
        <CharString name="e">
          -80 callsubr
          endchar
        </CharString>
        <CharString name="eacute">
          -80 callsubr
          -55 182 -102 callsubr
        </CharString>
        <CharString name="ecircumflex">
          -82 25 callsubr
          131 112 -94 callsubr
          50 319 -107 callsubr
        </CharString>
        <CharString name="edieresis">
          -82 25 callsubr
          53 78 callsubr
          90 callsubr
          -97 29 callsubr
          -98 124 hintmask 11110010
          -100 callsubr
          hintmask 11101100
          93 171 -105 callsubr
        </CharString>
        <CharString name="egrave">
          -80 callsubr
          -4 324 -97 callsubr
        </CharString>
        <CharString name="eight">
          67 callsubr
          199 151 206 102 callsubr
          25 162 -127 135 184 135 -121 162 hintmask 11101010
          hintmask 11110010
          285 -15 rmoveto
          154 116 80 164 hvcurveto
          144 -135 38 41 vvcurveto
          hintmask 11101100
          34 94 39 109 vvcurveto
          91 -72 101 -147 -131 -104 -74 -142 vhcurveto
          -120 82 -30 -44 vvcurveto
          hintmask 11110010
          -40 -117 -42 -147 vvcurveto
          -137 128 -65 132 vhcurveto
          -1 167 rmoveto
          -61 -36 32 48 54 43 65 58 45 60 -58 -62 -49 -50 -30 -59 hvcurveto
          hintmask 11101100
          556 vmoveto
          51 44 -37 -52 -61 -57 -56 -34 -28 -65 51 68 48 42 39 47 hvcurveto
          endchar
        </CharString>
        <CharString name="ellipsis">
          393 -15 220 hstem
          55 224 109 224 109 224 cntrmask 01110000
          166 51 callsubr
          333 hmoveto
          -76 callsubr
          333 hmoveto
          54 callsubr
        </CharString>
        <CharString name="emdash">
          393 257 118 hstem
          -25 1050 vstem
          969 257 21 callsubr
          -948 11 callsubr
        </CharString>
        <CharString name="endash">
          -107 257 89 callsubr
          257 21 callsubr
          -448 11 callsubr
        </CharString>
        <CharString name="equal">
          161 94 149 93 96 callsubr
          529 404 rmoveto
          93 -478 -93 vlineto
          478 -243 79 callsubr
          endchar
        </CharString>
        <CharString name="estimated">
          407 -14 23 385 22 385 25 hstem
          39 172 591 172 vstem
          974 394 rmoveto
          11 vlineto
          233 -209 188 -259 -258 -209 -188 -233 -231 209 -188 258 150 136 64 99 83 vhcurveto
          -67 hlineto
          -85 -73 -107 -55 -121 hhcurveto
          -112 -101 49 76 -73 hvcurveto
          -6 7 -4 9 10 vvcurveto
          229 vlineto
          4 2 1 4 vhcurveto
          585 30 rmoveto
          -3 -1 -5 -4 vhcurveto
          -580 hlineto
          -4 -2 5 3 hvcurveto
          225 vlineto
          11 4 10 7 7 vhcurveto
          75 74 100 49 111 hhcurveto
          111 99 -48 -72 74 hvcurveto
          7 -7 4 -10 -10 vvcurveto
          endchar
        </CharString>
        <CharString name="eth">
          60 callsubr
          145 346 rmoveto
          -36 callsubr
          -101 -26 114 80 vhcurveto
          12 331 rmoveto
          118 51 32 -27 29 -37 18 -46 rlinecurve
          -2 hlineto
          30 -36 -36 7 -32 hhcurveto
          -128 -99 -121 -213 17 callsubr
          136 115 115 305 155 -38 132 -87 88 hvcurveto
          106 45 -42 49 -114 -51 rlineto
          24 -35 -73 27 -19 hhcurveto
          -5 -4 -3 -3 -5 hvcurveto
          -86 -62 rlineto
          -2 -1 -1 -2 -2 vvcurveto
          -3 2 -1 3 20 35 -9 -21 38 vhcurveto
          -101 -43 rlineto
          endchar
        </CharString>
        <CharString name="exclam">
          -282 -15 220 627 -20 hstemhm
          50 145 -145 224 hintmask 11010000
          161 51 callsubr
          hintmask 11100000
          -55 847 rmoveto
          -40 -16 18 -164 -108 45 -312 46 27 43 4 10 hvcurveto
          20 -16 120 100 140 79 137 16 vvcurveto
          17 -22 2 -13 vhcurveto
          endchar
        </CharString>
        <CharString name="exclamdown">
          -282 21 -21 627 220 hstemhm
          50 224 -145 145 hintmask 11100000
          161 847 rmoveto
          -62 -49 -50 -61 -60 50 -49 60 63 51 48 62 62 -51 48 -62 hvcurveto
          hintmask 11010000
          57 -847 rmoveto
          40 16 -18 164 108 -45 312 -46 -27 -43 -4 -10 hvcurveto
          -20 16 -120 -100 -140 -79 -137 -16 vvcurveto
          -17 22 -2 13 vhcurveto
          endchar
        </CharString>
        <CharString name="f">
          -249 3 callsubr
          vstem
          232 hmoveto
          -28 callsubr
          19 41 28 hvcurveto
          11 4 -9 14 hhcurveto
          17 12 98 15 29 -51 -5 -39 -30 callsubr
          endchar
        </CharString>
        <CharString name="f_i">
          -69 callsubr
        </CharString>
        <CharString name="f_l">
          -71 callsubr
        </CharString>
        <CharString name="fi">
          -69 callsubr
        </CharString>
        <CharString name="five">
          55 callsubr
          243 118 159 128 hstem
          72 129 186 68 callsubr
          142 811 rmoveto
          -42 -28 -231 -151 -59 33 -13 26 hvcurveto
          27 35 49 71 hhcurveto
          74 49 -56 -74 -69 -48 -44 -70 hvcurveto
          -105 -10 73 -29 hhcurveto
          -17 -61 -147 -8 -22 71 -74 133 164 118 104 185 130 -74 120 -141 hvcurveto
          -68 -20 -17 -8 hhcurveto
          -15 -6 16 23 53 27 68 17 7 hvcurveto
          7 18 28 2 19 95 40 -15 25 hhcurveto
          18 11 118 13 11 -11 1 -9 hvcurveto
          endchar
        </CharString>
        <CharString name="fl">
          -71 callsubr
        </CharString>
        <CharString name="florin">
          67 callsubr
          358 95 93 128 hstem
          237 64 callsubr
          133 525 rmoveto
          -18 -1 -13 13 vhcurveto
          21 20 16 18 hhcurveto
          40 -7 -41 -30 -69 -12 -218 -79 hvcurveto
          -21 -4 16 -14 hhcurveto
          -37 -25 -131 -15 -29 74 -8 69 91 93 105 329 39 -2 52 55 hvcurveto
          18 20 -13 18 hhcurveto
          21 20 68 24 14 -11 17 -18 hvcurveto
          -43 -22 -15 -13 hhcurveto
          -15 -10 12 14 23 19 44 28 hvcurveto
          11 24 -6 14 hhcurveto
          17 32 92 15 29 -71 -2 -59 -52 -62 -42 -62 -19 hvcurveto
          -45 -14 0 -72 -50 hhcurveto
          -63 -12 -64 -16 hvcurveto
          endchar
        </CharString>
        <CharString name="four">
          6 -21 246 118 -110 142 274 -20 hstemhm
          21 155 99 156 -139 135 hintmask 11011010
          431 10 rmoveto
          hintmask 10111010
          56 -4 28 45 vvcurveto
          91 14 9 35 vhcurveto
          24 31 -10 19 hhcurveto
          11 2 11 28 127 -2 -14 -36 -64 -14 5 79 hvcurveto
          96 32 75 9 vvcurveto
          5 -4 5 -6 -33 -85 -71 -174 -40 vhcurveto
          hintmask 11011010
          -45 -10 -81 -16 -22 hhcurveto
          -17 -5 3 12 hvcurveto
          173 285 237 18 vvcurveto
          19 -27 0 -8 vhcurveto
          -110 hlineto
          -59 -236 -331 -186 -46 4 -50 46 hvcurveto
          25 90 33 70 hhcurveto
          18 18 -3 -22 hvcurveto
          hintmask 11011100
          -68 -17 -55 -60 vvcurveto
          -30 -1 7 -8 24 hhcurveto
          hintmask 11011010
          40 86 8 17 hvcurveto
          endchar
        </CharString>
        <CharString name="fraction">
          30 callsubr
        </CharString>
        <CharString name="g">
          -51 -15 146 -96 146 47 128 204 95 -20.0399932861 104.039993286 -92 -20 hstemhm
          25 135 -93 118 194 118 hintmask 1011001010000000
          hintmask 1011000110000000
          282 356 rmoveto
          -59 -38 43 59 64 43 38 54 54 43 -38 -64 -64 -43 -38 -54 hvcurveto
          299 vmoveto
          -134 -81 -79 -131 hvcurveto
          -108 72 -44 -24 vvcurveto
          hintmask 1011001010000000
          -28 -114 -11 -117 vvcurveto
          -82 65 -46 79 38 34 13 12 32 vhcurveto
          hintmask 0111001010000000
          13 33 31 12 30 hhcurveto
          hintmask 1011001010000000
          56 1 -50 25 hhcurveto
          30 40 112 26 hvcurveto
          hintmask 0111001010000000
          36 -83 22 -23 vhcurveto
          hintmask 1010101010000000
          -94 -83 -50 -42 hhcurveto
          -18 -16 15 19 29 67 34 55 149 66 110 104 hvcurveto
          108 -51 20 30 52 93 -30 30 vvcurveto
          16 -55 71 -27 vhcurveto
          hintmask 1010011010000000
          -40 -27 -92 -46 hhcurveto
          -3 -7 2 2 -10 hvcurveto
          hintmask 1011000110000000
          2 -11 -14 2 -17 hhcurveto
          endchar
        </CharString>
        <CharString name="germandbls">
          -50 -15 170 -134 -21 733 135 hstemhm
          50 135 44 140 -53 124 -46 146 hintmask 01110010
          182 hmoveto
          37 3 7 16 hvcurveto
          18 -37 210 188 vvcurveto
          291 45 3 37 vhcurveto
          hintmask 01110100
          33 16 -29 -28 -40 -23 -30 -28 -7 hvcurveto
          hintmask 01111010
          -24 -6 -12 -5 -65 vvcurveto
          -15 1 -35 14 vhcurveto
          6 16 19 12 hhcurveto
          hintmask 10110010
          37 79 -122 -146 -27 -4 -42 -30 hvcurveto
          -16 -10 15 -10 hhcurveto
          -14 -62 -116 -11 -19 57 -39 53 76 106 51 184 hvcurveto
          255 -171 60 11 vvcurveto
          hintmask 01110100
          13 71 21 114 vvcurveto
          107 -85 67 -91 -45 -67 -11 -79 -50 vhcurveto
          -34 -54 -18 -66 -252 vvcurveto
          -426 14 20 45 vhcurveto
          endchar
        </CharString>
        <CharString name="grave">
          -222 95 callsubr
          50 218 vstem
          180 861 -97 callsubr
        </CharString>
        <CharString name="greater">
          23 613 hstem
          443 85 vstem
          53 636 rmoveto
          -106 vlineto
          390 -198 rlineto
          -3 vlineto
          -389 -198 rlineto
          -108 vlineto
          474 258 rlineto
          98 vlineto
          endchar
        </CharString>
        <CharString name="greaterequal">
          -20 93 hstemhm
          54 476 -86 85 hintmask 11000000
          60 711 rmoveto
          -106 vlineto
          hintmask 10100000
          384 -191 rlineto
          -2 vlineto
          -384 -192 rlineto
          -106 vlineto
          469 249 rlineto
          99 vlineto
          1 -482 rmoveto
          93 -476 -93 vlineto
          endchar
        </CharString>
        <CharString name="guillemotleft">
          1 99 callsubr
          69 128 122 128 vstem
          319 367 -78 callsubr
          -359 -165 -78 callsubr
          endchar
        </CharString>
        <CharString name="guillemotright">
          1 99 callsubr
          161 128 122 -38 callsubr
          141 165 -77 callsubr
          endchar
        </CharString>
        <CharString name="guilsinglleft">
          -249 99 callsubr
          69 128 vstem
          69 367 -78 callsubr
          endchar
        </CharString>
        <CharString name="guilsinglright">
          -249 99 callsubr
          161 -38 callsubr
          endchar
        </CharString>
        <CharString name="h">
          -63 21 -21 537 72 -72 102 callsubr
          50 135 179 80 callsubr
          107 853 rmoveto
          -55 -2 -363 -80 -444 0 34 29 hvcurveto
          99 hlineto
          10 19 0 16 hvcurveto
          29 -22 65 200 vvcurveto
          71 2 156 102 49 26 -31 -155 vhcurveto
          -133 -50 -198 -7 vvcurveto
          -16 27 3 9 vhcurveto
          104 hlineto
          31 14 253 96 241 -67 65 -91 -33 -28 -12 -12 -23 hvcurveto
          hintmask 11011000
          -13 -22 -16 -9 -8 hhcurveto
          -17 0 19 12 hvcurveto
          80 38 98 14 vvcurveto
          10 -7 11 -9 vhcurveto
          endchar
        </CharString>
        <CharString name="hungarumlaut">
          -40 95 callsubr
          62 443 vstem
          299 719 -104 callsubr
          -301 -142 -102 callsubr
        </CharString>
        <CharString name="hyphen">
          -23 callsubr
        </CharString>
        <CharString name="i">
          32 callsubr
          98 135 98 callsubr
          -124 154 hintmask 11110000
          -79 callsubr
          hintmask 11101000
          35 718 44 callsubr
        </CharString>
        <CharString name="iacute">
          -40 callsubr
          -29 719 -102 callsubr
        </CharString>
        <CharString name="icircumflex">
          32 callsubr
          166 112 -61 callsubr
          105 856 -107 callsubr
        </CharString>
        <CharString name="idieresis">
          32 callsubr
          88 78 callsubr
          -70 178 -62 135 -22 178 hintmask 11101000
          -79 callsubr
          hintmask 11110100
          149 708 -105 callsubr
        </CharString>
        <CharString name="igrave">
          -40 callsubr
          22 861 -97 callsubr
        </CharString>
        <CharString name="infinity">
          251 136 85 218 84 hstem
          52 86 582 86 vstem
          806 335 rmoveto
          114 -78 73 -96 1 vhcurveto
          -101 -55 -71 -49 -42 hvcurveto
          76 -57 -58 44 -81 hhcurveto
          -106 -80 -79 -116 -116 84 -76 92 89 58 51 72 56 hvcurveto
          -100 72 60 -23 63 hhcurveto
          92 88 73 125 hvcurveto
          -567 -113 rmoveto
          -56 -45 48 58 65 36 47 62 69 35 -53 -62 45 hvcurveto
          -53 -43 -42 -50 -59 hhcurveto
          382 218 rmoveto
          59 38 -49 -63 -46 -33 -60 -59 -55 -32 27 84 -64 hvcurveto
          40 34 46 67 65 hhcurveto
          endchar
        </CharString>
        <CharString name="integral">
          -154 -204 123 -102 -21 1095 115 hstemhm
          148 142 -127 142 hintmask 01101000
          420 995 rmoveto
          5 -14 -26 6 -29 hhcurveto
          hintmask 01110000
          -51 -53 -18 -37 -33 hvcurveto
          -48 -54 -18 -75 -138 vvcurveto
          hintmask 10101000
          -203 15 -147 -219 vvcurveto
          -99 -8 -49 -17 -27 vhcurveto
          -16 -11 -17 -5 -16 hhcurveto
          -20 -14 6 5 -11 hvcurveto
          hintmask 01101000
          -18 -116 rlineto
          -9 16 32 -9 38 hhcurveto
          58 63 23 66 31 hvcurveto
          24 49 12 79 106 vvcurveto
          hintmask 01110000
          215 -15 144 192 vvcurveto
          93 5 68 21 30 vhcurveto
          22 14 18 8 21 hhcurveto
          15 11 -4 -5 10 hvcurveto
          endchar
        </CharString>
        <CharString name="j">
          -305 -15 148 -127 -21 655 -20 98 135 hstemhm
          89 154 -122 135 hintmask 01110100
          143 640 rmoveto
          -16 -27 4 -23 hvcurveto
          -45 21 -176 -100 vvcurveto
          hintmask 10110100
          -159 -23 -8 -20 vhcurveto
          -19 -6 25 -16 hhcurveto
          -27 -10 -96 -31 -37 62 -9 27 146 21 142 119 394 -20 0 -14 hvcurveto
          hintmask 01111000
          -56 78 44 callsubr
        </CharString>
        <CharString name="k">
          -93 21 -21 280 99 261 -20 hstemhm
          47 135 138 135 -107 162 hintmask 11111000
          193 hmoveto
          15 10 1 11 hvcurveto
          18 -25 65 122 vvcurveto
          48 46 15 13 vhcurveto
          hintmask 11110100
          30 65 -111 -138 1 hvcurveto
          -32 1 9 1 27 hhcurveto
          81 hlineto
          25 19 -3 30 119 -41 85 -41 51 hvcurveto
          -41 51 -41 16 21 vvcurveto
          hintmask 11111000
          20 109 90 138 vvcurveto
          28 -23 -6 -20 vhcurveto
          -61 hlineto
          -21 -10 4 -25 -108 -91 -132 -34 -13 0 45 35 hvcurveto
          1 260 36 92 20 vvcurveto
          16 -11 6 -13 vhcurveto
          -107 hlineto
          45 callsubr
          endchar
        </CharString>
        <CharString name="l">
          -350 21 -21 hstem
          55 64 callsubr
          191 23 callsubr
          249 42 144 6 vvcurveto
          22 -30 -3 -11 vhcurveto
          -95 hlineto
          45 callsubr
          endchar
        </CharString>
        <CharString name="less">
          23 613 hstemhm
          53 85 -85 475 hintmask 10100000
          528 23 rmoveto
          108 vlineto
          hintmask 11000000
          -390 199 rlineto
          2 vlineto
          389 198 rlineto
          106 vlineto
          -474 -257 rlineto
          -98 vlineto
          endchar
        </CharString>
        <CharString name="lessequal">
          -20 93 hstemhm
          53 478 -474 84 hintmask 11000000
          526 114 rmoveto
          106 vlineto
          hintmask 10100000
          -385 192 rlineto
          2 vlineto
          384 191 rlineto
          106 vlineto
          -468 -249 rlineto
          -99 vlineto
          474 -383 rmoveto
          93 -478 -93 vlineto
          endchar
        </CharString>
        <CharString name="logicalnot">
          388 93 hstem
          437 92 vstem
          529 158 rmoveto
          323 -478 -93 386 -230 vlineto
          endchar
        </CharString>
        <CharString name="lozenge">
          31 -56 131 659 133 hstem
          53 532 vstem
          585 405 rmoveto
          -198 462 rlineto
          -127 hlineto
          -207 -462 198 -461 rlineto
          127 hlineto
          69 457 rmoveto
          -108 -255 -5 -11 -10 -41 -4 -19 rlinecurve
          -6 hlineto
          -3 17 -7 33 -8 24 -105 259 rcurveline
          107 246 9 26 7 29 5 25 rlinecurve
          4 hlineto
          4 -24 9 -31 8 -25 rrcurveto
          endchar
        </CharString>
        <CharString name="lslash">
          -350 21 -21 480 79 96 -20 hstemhm
          55 135 -130 142 hintmask 11110000
          191 23 callsubr
          190 90 -100 100 vvcurveto
          hintmask 11101000
          13 5 17 -20 vhcurveto
          -15 -20 -25 -10 hhcurveto
          -10 -8 16 16 hvcurveto
          16 30 146 10 vvcurveto
          22 -30 -3 -11 vhcurveto
          -95 hlineto
          -28 -8 -156 -72 hvcurveto
          -2 -25 -10 -40 -30 -1 rrcurveto
          hintmask 11110000
          -43 -1 -5 -63 -10 vvcurveto
          -20 10 -10 11 vhcurveto
          19 20 25 10 hhcurveto
          15 1 -12 -110 -1 hvcurveto
          100 callsubr
          35 vhcurveto
          endchar
        </CharString>
        <CharString name="m">
          238 21 -21 522 72 -72 118 98 callsubr
          185 124 174 135 hintmask 10111100
          180 hmoveto
          11 18 -3 17 hvcurveto
          28 -28 38 201 vvcurveto
          149 28 92 75 82 0 -141 -60 vhcurveto
          -95 -38 -201 -15 vvcurveto
          -14 16 4 19 vhcurveto
          90 hlineto
          32 5 1 359 165 33 -3 35 38 68 -20 -191 hvcurveto
          -167 -38 -110 -18 vvcurveto
          -18 28 2 10 vhcurveto
          68 hlineto
          29 38 -34 305 128 4 241 -184 -36 -31 -14 -14 -25 hvcurveto
          hintmask 11011100
          -15 -25 -20 -3 -14 hhcurveto
          hintmask 10111100
          -25 -32 46 -49 hhcurveto
          -42 -30 -11 -12 -22 hvcurveto
          hintmask 11011100
          -11 -22 -14 -12 -12 hhcurveto
          -10 -10 7 10 hvcurveto
          14 12 19 12 vvcurveto
          15 -22 1 -21 -136 13 13 -421 -296 21 32 34 vhcurveto
          endchar
        </CharString>
        <CharString name="macron">
          10 callsubr
        </CharString>
        <CharString name="minus">
          282 94 96 callsubr
          529 282 79 callsubr
          endchar
        </CharString>
        <CharString name="mu">
          -52 callsubr
        </CharString>
        <CharString name="multiply">
          41 556 hstem
          37 500 vstem
          536 101 rmoveto
          -190 218 191 217 -66 61 -178 -211 -184 210 -67 -62 188 -216 -193 -217 68 -59 181 210 182 -211 rlineto
          endchar
        </CharString>
        <CharString name="n">
          -55 21 -21 522 77 -77 118 98 callsubr
          190 80 callsubr
          43 callsubr
          hintmask 11011000
          8 callsubr
          hintmask 10111000
          38 callsubr
          endchar
        </CharString>
        <CharString name="nine">
          67 callsubr
          158 128 253 135 hstem
          33 135 233 68 callsubr
          286 691 rmoveto
          67 48 -69 -63 -68 -55 -53 -70 -72 -36 59 64 69 43 61 75 hvcurveto
          -90 -706 rmoveto
          211 140 171 288 265 -116 117 -144 -106 -148 -85 -210 -115 70 -106 130 hvcurveto
          74 53 44 17 hhcurveto
          10 7 -13 -9 -69 -83 -111 -87 hvcurveto
          -55 -18 34 -19 hhcurveto
          -15 -42 -149 -8 -35 100 -9 21 hvcurveto
          endchar
        </CharString>
        <CharString name="notequal">
          165 90 147 91 96 callsubr
          433 587 rmoveto
          -71 25 -49 -119 rlineto
          -262 -91 230 hlineto
          -60 -147 rlineto
          -170 -90 138 hlineto
          -41 -95 70 -27 51 122 rlineto
          260 90 -228 hlineto
          61 147 rlineto
          167 91 -136 hlineto
          endchar
        </CharString>
        <CharString name="ntilde">
          -55 21 -21 522 77 -77 118 86 94 -47 95 98 callsubr
          190 135 hintmask 10101110
          43 callsubr
          hintmask 11001110
          8 callsubr
          hintmask 10101110
          38 callsubr
          -167 868 -56 callsubr
          hintmask 10110110
          -72 callsubr
          hintmask 10101110
          22 callsubr
        </CharString>
        <CharString name="numbersign">
          11 21 -21 235 103 140 103 hstem
          31 556 vstem
          191 hmoveto
          37 235 rlineto
          109 hlineto
          -36 -235 rlineto
          95 hlineto
          39 235 rlineto
          117 103 -104 hlineto
          25 140 rlineto
          114 103 -99 hlineto
          36 230 rlineto
          -98 hlineto
          -36 -230 rlineto
          -110 hlineto
          37 230 rlineto
          -96 hlineto
          -37 -230 rlineto
          -119 -103 106 hlineto
          -25 -140 rlineto
          -115 -103 100 hlineto
          -37 -235 rlineto
          148 338 rmoveto
          24 140 rlineto
          110 hlineto
          -24 -140 rlineto
          endchar
        </CharString>
        <CharString name="o">
          -68 callsubr
          endchar
        </CharString>
        <CharString name="o.superior">
          -15 callsubr
        </CharString>
        <CharString name="oacute">
          -68 callsubr
          -63 567 -102 callsubr
        </CharString>
        <CharString name="ocircumflex">
          1 callsubr
          131 112 -82 callsubr
          71 704 -107 callsubr
        </CharString>
        <CharString name="odieresis">
          1 callsubr
          53 78 callsubr
          21 124 -76 29 callsubr
          -77 124 hintmask 11110010
          -96 callsubr
          hintmask 11101100
          115 556 -105 callsubr
        </CharString>
        <CharString name="oe">
          285 -15 135 -135 167 385 102 callsubr
          16 callsubr
          212 124 hintmask 10111100
          651 537 -45 callsubr
          hintmask 01111100
          -379 -385 rmoveto
          -57 callsubr
          -251 169 rmoveto
          hintmask 10111100
          17 callsubr
          69 73 39 53 35 vhcurveto
          -61 51 61 -31 80 hhcurveto
          -86 callsubr
          -74 -68 -33 -69 -52 vhcurveto
          65 -45 -65 37 -80 hhcurveto
          hintmask 01111100
          18 callsubr
          hvcurveto
          endchar
        </CharString>
        <CharString name="ogonek">
          -207 -5 7 hstem
          44 178 vstem
          44 -118 rmoveto
          -37 61 -39 68 153 50 54 15 vhcurveto
          9 -154 -25 82 vvcurveto
          30 16 19 12 5 vhcurveto
          7 vlineto
          -119 -87 -37 -83 hvcurveto
          endchar
        </CharString>
        <CharString name="ograve">
          -68 callsubr
          18 709 -97 callsubr
        </CharString>
        <CharString name="one">
          6 -21 hstem
          211 68 callsubr
          211 226 rmoveto
          -247 11 6 18 52 98 10 17 vhcurveto
          175 -33 162 136 160 28 122 19 vvcurveto
          28 -40 12 -21 -105 -79 -71 -24 vhcurveto
          -34 82 5 -86 -115 -11 -124 -151 vvcurveto
          endchar
        </CharString>
        <CharString name="one.superior">
          -6 callsubr
        </CharString>
        <CharString name="onehalf">
          299 0 107 -96 -21 396 106 213 112 hstemhm
          126 127 266 332 -138 132 hintmask 10001000
          hintmask 01011000
          253 -10 94 callsubr
          -381 35 callsubr
          hintmask 10001100
          393 -330 rmoveto
          332 107 -170 3 hlineto
          27 18 rlineto
          hintmask 10101010
          77 72 60 53 95 vvcurveto
          88 -67 56 -96 -68 -62 -25 -21 -28 vhcurveto
          29 -92 rlineto
          14 19 40 18 31 hhcurveto
          48 22 -30 -29 -43 -32 -44 -87 -85 hvcurveto
          -75 -78 rlineto
          endchar
        </CharString>
        <CharString name="onequarter">
          260 85 callsubr
          163 128 217 112 hstemhm
          126 127 389 118 hintmask 10011110
          760 hmoveto
          hintmask 00111110
          105 59 vlineto
          hintmask 10011110
          92 -59 291 -120 vlineto
          hintmask 00111110
          84 callsubr
          hintmask 10011110
          -105 vlineto
          197 vmoveto
          -110 hlineto
          -1 1 81 108 11 15 8 71 callsubr
          hintmask 01011110
          -389 -293 rmoveto
          382 831 rlineto
          -98 hlineto
          -382 35 callsubr
          endchar
        </CharString>
        <CharString name="onesuperior">
          -6 callsubr
        </CharString>
        <CharString name="ordfeminine">
          -46 callsubr
        </CharString>
        <CharString name="ordmasculine">
          -15 callsubr
        </CharString>
        <CharString name="oslash">
          60 callsubr
          440 578 rmoveto
          50 -40 -55 27 -73 hhcurveto
          18 callsubr
          -68 14 -83 34 -57 hvcurveto
          -48 -59 rlineto
          -8 -9 -11 -12 -13 vvcurveto
          -23 21 -12 18 18 9 16 8 7 vhcurveto
          37 46 rlineto
          -44 42 58 -26 60 hhcurveto
          65 callsubr
          101 235 90 -19 57 -24 49 hvcurveto
          46 59 rlineto
          8 9 15 18 18 vvcurveto
          24 -15 10 -21 -21 -15 -27 -10 -8 vhcurveto
          -76 -213 rmoveto
          4 -18 2 -21 -20 vvcurveto
          -80 -26 -114 -101 -19 -26 8 14 -19 vhcurveto
          -43 58 rmoveto
          -16 38 -4 37 39 vvcurveto
          79 28 112 99 45 29 -22 -33 18 vhcurveto
          endchar
        </CharString>
        <CharString name="otilde">
          1 callsubr
          71 76 callsubr
          16 callsubr
          hintmask 11011100
          -96 callsubr
          -78 716 -59 callsubr
        </CharString>
        <CharString name="p">
          46 callsubr
          hstem
          69 callsubr
          207 124 vstem
          227 259 rmoveto
          -45 -1 40 35 70 callsubr
          hvcurveto
          -54 -259 rmoveto
          11 21 -2 16 hvcurveto
          11 -19 80 70 vvcurveto
          18 -3 18 10 53 callsubr
          106 -56 105 -224 -170 -16 15 -213 hvcurveto
          -294 vlineto
          -172 14 9 31 vhcurveto
          endchar
        </CharString>
        <CharString name="paragraph">
          -24 741 102 hstem
          237 97 73 98 vstem
          334 -61 rmoveto
          802 73 -802 98 891 vlineto
          8 -31 -51 5 -68 hhcurveto
          -215 -100 -107 -168 -1 hvcurveto
          -185 -1 118 -59 72 hhcurveto
          9 -385 hlineto
          endchar
        </CharString>
        <CharString name="parenleft">
          -146 6 -21 727 135 hstem
          75 72 callsubr
          75 440 rmoveto
          -210 68 -245 36 22 51 21 15 vhcurveto
          12 -59 114 259 vvcurveto
          174 14 132 151 26 2 3 4 13 -20 115 -68 -149 -74 -141 -266 vhcurveto
          endchar
        </CharString>
        <CharString name="parenright">
          -146 -15 135 727 -20 hstem
          268 72 callsubr
          386 392 rmoveto
          210 -68 245 -36 -22 -51 -21 -15 vhcurveto
          -12 59 -114 -259 vvcurveto
          -174 -14 -132 -151 -26 -2 -3 -4 -13 20 -115 68 149 74 141 266 vhcurveto
          endchar
        </CharString>
        <CharString name="partialdiff">
          11 -9 136 317 130 210 134 hstem
          41 153 220 151 vstem
          113 729 rmoveto
          26 29 44 29 61 hhcurveto
          105 62 -130 -122 -7 0 -20 -1 -7 hvcurveto
          -1 hlineto
          26 -15 -49 50 -77 hhcurveto
          -125 -105 -114 -194 -128 74 -147 148 192 110 184 303 299 -141 141 -155 -101 -62 -38 -27 -34 hvcurveto
          207 -726 rmoveto
          -53 -32 58 72 95 41 92 66 57 34 -50 -30 9 hvcurveto
          -104 -10 -40 -133 -71 hhcurveto
          endchar
        </CharString>
        <CharString name="percent">
          187 -15 118 205 72 51 118 205 72 21 -20 hstemhm
          46 95 118 95 86 95 118 95 hintmask 1111011110000000
          594 103 rmoveto
          59 callsubr
          hintmask 1110111110000000
          13 650 9 callsubr
          hintmask 1111011110000000
          293 -74 56 callsubr
          -394 446 56 callsubr
          118 vmoveto
          59 callsubr
          endchar
        </CharString>
        <CharString name="period">
          -317 -15 37 callsubr
          -15 -35 callsubr
        </CharString>
        <CharString name="periodcentered">
          20 callsubr
        </CharString>
        <CharString name="perthousand">
          686 -7 93 -75 -21 332 94 -18 95 235 95 hstemhm
          28 114 126 114 123 114 126 113 53 113 126 114 hintmask 1001111111100000
          hintmask 1001000001100000
          1090 493 rmoveto
          -100 -79 -88 -168 -155 77 -89 99 96 81 84 172 163 -78 81 -94 hvcurveto
          -4 -94 rmoveto
          44 18 -52 -104 -111 -25 -46 -37 -40 -24 49 108 100 21 56 42 hvcurveto
          hintmask 1001000110000000
          -402 94 rmoveto
          -100 -80 -88 -167 -156 78 -89 99 96 80 85 171 163 -77 81 -95 hvcurveto
          -4 -95 rmoveto
          46 17 -52 -103 -111 -25 -45 -37 -41 -23 49 107 99 21 56 42 hvcurveto
          hintmask 0010111000000000
          -473 425 rmoveto
          -100 -81 -88 -167 -157 79 -89 98 97 80 84 173 162 -76 82 -95 hvcurveto
          -5 -95 rmoveto
          44 18 -52 -103 -111 -24 -46 -37 -41 -24 49 108 99 21 56 42 hvcurveto
          hintmask 0100001000000000
          77 -738 rmoveto
          398 831 rlineto
          -83 hlineto
          -398 -831 rlineto
          endchar
        </CharString>
        <CharString name="pi">
          37 21 -21 473 139 hstem
          117 152 127 155 vstem
          621 473 rmoveto
          10 139 rlineto
          -446 hlineto
          -93 -60 -18 -23 -28 hvcurveto
          17 -108 rlineto
          6 22 28 4 46 hhcurveto
          -2 -116 -26 -212 -35 -145 rrcurveto
          149 hlineto
          39 135 22 226 5 112 rrcurveto
          127 -312 hlineto
          -75 5 -58 14 -28 vhcurveto
          149 hlineto
          -8 37 -5 49 78 vvcurveto
          309 vlineto
          endchar
        </CharString>
        <CharString name="plus">
          282 94 hstem
          244 93 vstem
          529 282 rmoveto
          94 -192 232 -93 -232 -194 -94 194 -245 93 245 vlineto
          endchar
        </CharString>
        <CharString name="plusminus">
          -9 92 281 94 hstem
          241 94 vstem
          524 364 rmoveto
          94 -189 222 -94 -222 -191 -94 191 -232 94 232 vlineto
          194 -373 rmoveto
          92 -475 -92 vlineto
          endchar
        </CharString>
        <CharString name="product">
          166 664 147 hstem
          130 155 202 155 vstem
          743 664 rmoveto
          147 -715 -147 102 -776 155 776 202 -776 155 776 vlineto
          endchar
        </CharString>
        <CharString name="q">
          46 callsubr
          hstem
          13 124 207 64 callsubr
          298 259 rmoveto
          -89 -72 85 83 65 53 45 63 53 38 -4 -199 -35 -1 -40 -45 hvcurveto
          136 -259 rmoveto
          31 14 -9 172 hvcurveto
          294 vlineto
          213 -16 -15 -170 -224 -56 -105 -106 -156 153 -157 77 18 19 24 19 16 vhcurveto
          18 16 13 19 7 hhcurveto
          10 -3 -18 -18 hvcurveto
          -70 -19 -80 -11 vvcurveto
          -16 21 2 11 vhcurveto
          endchar
        </CharString>
        <CharString name="question">
          -127 -15 220 514 128 hstemhm
          73 224 -165 100 52 146 hintmask 11011000
          132 305 rmoveto
          -37 14 6 33 44 9 -6 44 vhcurveto
          77 198 42 181 vvcurveto
          121 -85 114 -127 -92 -76 -69 -32 -12 67 -77 11 vhcurveto
          16 14 62 57 hhcurveto
          47 22 -45 -41 hvcurveto
          -124 -152 15 -147 vvcurveto
          hintmask 11100000
          52 -392 -35 callsubr
        </CharString>
        <CharString name="questiondown">
          -127 -15 128 514 220 66 callsubr
          -11 224 -161 100 hintmask 11101000
          348 527 rmoveto
          37 -14 -6 -33 -44 -9 6 -44 vhcurveto
          -77 -198 -42 -181 vvcurveto
          -121 85 -114 127 92 76 69 32 12 -67 77 -11 vhcurveto
          -16 -14 -62 -57 hhcurveto
          -47 -22 45 41 hvcurveto
          124 152 -15 147 vvcurveto
          hintmask 11010000
          -52 172 -35 callsubr
        </CharString>
        <CharString name="quotedbl">
          -274 75 callsubr
          25 98 87 98 vstem
          74 847 rmoveto
          -14 callsubr
          185 hmoveto
          -14 callsubr
          endchar
        </CharString>
        <CharString name="quotedblbase">
          8 -64 276 hstem
          128 162 113 49 callsubr
          70 126 -25 callsubr
        </CharString>
        <CharString name="quotedblleft">
          8 847 -20 101 callsubr
          113 49 callsubr
          545 657 -13 callsubr
          -192 67 -13 callsubr
          endchar
        </CharString>
        <CharString name="quotedblright">
          8 75 callsubr
          128 162 113 49 callsubr
          70 761 -25 callsubr
        </CharString>
        <CharString name="quoteleft">
          -267 847 -20 101 callsubr
          vstem
          270 657 -13 callsubr
          endchar
        </CharString>
        <CharString name="quoteright">
          -267 75 callsubr
          128 49 callsubr
          70 761 -47 callsubr
        </CharString>
        <CharString name="quotesinglbase">
          -267 -64 276 hstem
          128 49 callsubr
          70 126 -47 callsubr
        </CharString>
        <CharString name="quotesingle">
          -385 75 callsubr
          62 98 vstem
          111 847 rmoveto
          -14 callsubr
          endchar
        </CharString>
        <CharString name="r">
          -181 21 -21 512 80 -80 128 -128 143 hstemhm
          47 135 hintmask 10011000
          182 hmoveto
          11 22 0 16 1 hvcurveto
          18 -34 84 199 vvcurveto
          60 6 135 84 vhcurveto
          69 -14 -67 12 hhcurveto
          30 57 42 70 54 -42 44 -51 -27 -24 -16 -15 -21 hvcurveto
          hintmask 11001000
          -16 -21 -17 -16 -15 hhcurveto
          -20 -2 19 15 -2 hvcurveto
          hintmask 10101000
          19 -1 -18 -5 -15 hhcurveto
          -83 hlineto
          -28 -1 8 -62 -277 vvcurveto
          -331 18 31 37 vhcurveto
          endchar
        </CharString>
        <CharString name="radical">
          32 -155 1134 hstem
          35 611 vstem
          646 979 rmoveto
          -106 hlineto
          -173 -825 -8 -47 -5 -47 -4 -27 rlinecurve
          -2 2 -4 26 -9 42 -8 42 rlinecurve
          -95 336 -197 -80 24 -90 79 31 150 -497 rlineto
          122 hlineto
          endchar
        </CharString>
        <CharString name="registered">
          321 -15 95 287 69 161 72 83 95 hstemhm
          33 95 146 121 159 118 -118 138 108 95 hintmask 1111111010000000
          416 436 rmoveto
          -20 -1 24 13 103 26 21 59 35 39 -15 -37 -56 -116 -53 -22 hvcurveto
          -94 233 rmoveto
          -15 -5 -6 -13 -6 hvcurveto
          -9 -19 -5 -47 -2 -23 -6 -178 rcurveline
          -39 3 -132 11 -32 vhcurveto
          -12 4 8 2 13 hhcurveto
          90 hlineto
          6 17 -3 10 hvcurveto
          4 -24 82 46 vvcurveto
          33 47 25 20 vhcurveto
          hintmask 1111110110000000
          21 52 -92 -98 12 hvcurveto
          -9 3 11 2 12 hhcurveto
          96 hlineto
          13 3 1 6 hvcurveto
          130 -129 94 13 vvcurveto
          hintmask 1111111010000000
          17 109 33 93 vvcurveto
          51 -30 61 -133 vhcurveto
          -45 -684 rmoveto
          -18 callsubr
        </CharString>
        <CharString name="ring">
          -207 677 62 107 62 hstem
          77 72 102 72 vstem
          200 677 -24 callsubr
        </CharString>
        <CharString name="s">
          -90 25 callsubr
          hstem
          62 124 146 68 callsubr
          -22 callsubr
          endchar
        </CharString>
        <CharString name="scaron">
          -90 25 callsubr
          21 112 hstemhm
          62 124 146 146 hintmask 11011000
          -22 callsubr
          -65 885 -19 callsubr
        </CharString>
        <CharString name="section">
          1 -73 116 691 102 callsubr
          54 135 -88 149 125 149 -97 130 hintmask 11101000
          501 816 rmoveto
          22 -43 -55 14 -64 hhcurveto
          hintmask 11011000
          -137 -101 -63 -130 -41 19 -41 28 -30 hvcurveto
          hintmask 11101000
          -63 -30 -31 -61 -54 vvcurveto
          -107 72 -53 118 -37 vhcurveto
          93 -30 38 -15 -45 vvcurveto
          -49 -53 -23 -55 -59 -62 25 19 -28 vhcurveto
          -28 -114 rlineto
          -33 50 72 -13 72 hhcurveto
          117 123 67 131 39 -20 50 -28 22 hvcurveto
          hintmask 11010100
          49 41 32 48 63 vvcurveto
          90 -53 56 -122 50 vhcurveto
          -90 30 -42 22 37 vvcurveto
          34 36 27 66 48 49 -14 -17 28 vhcurveto
          hintmask 11100100
          -288 -276 rmoveto
          29 15 20 24 15 vhcurveto
          28 -13 42 -14 36 -12 rrcurveto
          57 -19 36 -30 -45 vvcurveto
          -27 -11 -26 -20 -11 vhcurveto
          -19 13 -41 15 -48 18 rrcurveto
          -69 23 -30 23 40 vvcurveto
          endchar
        </CharString>
        <CharString name="semicolon">
          -317 435 220 hstemhm
          33 224 -154 162 hintmask 10100000
          45 126 -93 callsubr
          hintmask 11000000
          16 242 -35 callsubr
        </CharString>
        <CharString name="seven">
          -15 118 580 128 hstem
          132 178 64 68 callsubr
          103 811 rmoveto
          -13 -30 4 -22 hvcurveto
          16 -157 rlineto
          -9 1 0 -21 14 24 0 77 118 hhcurveto
          84 hlineto
          18 39 4 -24 hvcurveto
          -53 -242 -197 -247 vvcurveto
          -92 61 -89 99 102 51 84 33 4 -2 4 -4 vhcurveto
          -8 -7 -7 -16 hhcurveto
          -72 -26 58 62 116 44 83 142 230 hvcurveto
          21 34 3 1 38 vvcurveto
          81 2 5 -28 vhcurveto
          endchar
        </CharString>
        <CharString name="six">
          67 callsubr
          253 128 158 135 hstem
          33 146 233 64 callsubr
          294 152 rmoveto
          -67 -48 69 63 68 55 53 70 72 36 -59 -64 -69 -43 -61 -75 hvcurveto
          90 674 rmoveto
          -211 -140 -171 -288 -265 116 -117 144 106 148 85 210 115 -70 138 -130 hvcurveto
          -74 -53 -44 -17 hhcurveto
          -10 -7 13 9 69 83 111 87 hvcurveto
          55 18 -34 19 hhcurveto
          15 42 117 8 35 -100 9 -21 hvcurveto
          endchar
        </CharString>
        <CharString name="slash">
          -80 6 -21 862 -20 hstem
          46 435 vstem
          454 753 9 callsubr
          endchar
        </CharString>
        <CharString name="space">
          -317 endchar
        </CharString>
        <CharString name="sterling">
          67 callsubr
          -167 173 -133 145 212 118 -106 95 209 128 hstemhm
          74 146 -49 135 hintmask 10010110
          390 500 rmoveto
          hintmask 10001110
          -23 -53 -11 -34 hhcurveto
          -33 -27 12 87 64 50 46 43 hvcurveto
          82 3 -72 30 hhcurveto
          19 86 58 20 30 -68 92 -150 -136 -105 -95 -150 hvcurveto
          0 -38 11 -9 0 -13 0 -13 -1 -19 0 flex1
          hintmask 10010110
          -9 -12 11 -11 hhcurveto
          -27 -21 -74 -13 -18 19 -13 23 hvcurveto
          hintmask 10001101
          21 35 12 31 hhcurveto
          22 26 -76 -72 -75 -24 -23 -52 4 hvcurveto
          hintmask 01010110
          -30 -8 6 -23 hhcurveto
          -39 6 -42 -71 hvcurveto
          hintmask 10010110
          -22 -7 -38 56 40 26 13 12 27 vhcurveto
          hintmask 00110110
          12 27 24 3 39 hhcurveto
          hintmask 10010110
          75 22 -40 102 hhcurveto
          50 98 46 154 88 -34 55 -17 -22 35 -180 4 -118 hvcurveto
          hintmask 00101101
          -48 -18 18 -44 hhcurveto
          -14 -12 -7 -4 -13 hvcurveto
          24 34 7 29 45 78 -21 5 32 vvcurveto
          7 4 5 7 vhcurveto
          hintmask 10010110
          28 25 -12 25 hhcurveto
          32 24 75 16 16 -17 11 -23 hvcurveto
          endchar
        </CharString>
        <CharString name="summation">
          -20 -112 151 637 135 hstem
          27 540 vstem
          567 -112 rmoveto
          151 -357 3 vlineto
          234 340 -207 291 rlineto
          3 314 135 -518 -114 vlineto
          238 -345 -244 -358 rlineto
          -106 vlineto
          endchar
        </CharString>
        <CharString name="t">
          -244 6 -21 551 104 hstem
          94 131 vstem
          268 786 rmoveto
          -20 -112 -28 -38 -5 hvcurveto
          -35 -5 -3 -49 -31 -8 -7 4 -4 -26 callsubr
          -53 -30 hvcurveto
          -19 -6 -48 -123 vvcurveto
          -55 10 -223 38 23 116 56 15 vhcurveto
          17 -56 44 266 vvcurveto
          89 0 64 55 vhcurveto
          18 20 -9 8 hhcurveto
          21 0 38 14 34 -1 27 -38 hvcurveto
          -13 -12 -5 -13 hhcurveto
          -15 -5 12 18 hvcurveto
          12 30 61 27 vvcurveto
          19 -5 2 -7 vhcurveto
          endchar
        </CharString>
        <CharString name="thorn">
          46 callsubr
          -3 -20 98 callsubr
          207 124 hintmask 11101100
          181 334 rmoveto
          70 callsubr
          -45 -1 40 35 vhcurveto
          -135 -171 rmoveto
          -141 -1 11 -22 24 hhcurveto
          102 hlineto
          16 7 6 8 hvcurveto
          11 -19 80 70 vvcurveto
          23 0 13 7 53 callsubr
          117 -77 94 -189 hvcurveto
          -5 -9 -1 -9 hhcurveto
          hintmask 11011100
          -1 -9 -9 -1 -4 hhcurveto
          -8 -3 6 8 hvcurveto
          57 30 100 9 vvcurveto
          15 -11 6 -20 vhcurveto
          -101 hlineto
          -22 -20 -149 -210 hvcurveto
          endchar
        </CharString>
        <CharString name="three">
          55 callsubr
          520 128 hstemhm
          345 174 -131 146 hintmask 11010000
          130 811 rmoveto
          -19 -31 5 -27 -22 21 -120 15 hvcurveto
          hintmask 11100000
          19 83 36 79 hhcurveto
          18 30 1 -18 hvcurveto
          -30 -190 -166 -39 vvcurveto
          -16 22 -5 13 vhcurveto
          hintmask 11010000
          112 86 -40 -92 -55 -47 -60 -57 hvcurveto
          -84 -29 71 -21 hhcurveto
          -10 -94 -128 -8 -13 81 -100 145 162 100 129 156 hvcurveto
          194 -166 13 26 vvcurveto
          hintmask 11100000
          22 151 93 164 vvcurveto
          36 -33 -7 -26 vhcurveto
          endchar
        </CharString>
        <CharString name="three.superior">
          -50 callsubr
        </CharString>
        <CharString name="threequarters">
          320 85 callsubr
          127 95 -59 128 56 84 99 96 hstemhm
          99 160 -37 128 -117 132 338 117 hintmask 1001011000100000
          820 hmoveto
          hintmask 0011011000100000
          105 59 vlineto
          hintmask 1000111000100000
          92 -59 291 -119 vlineto
          hintmask 0011011000100000
          84 callsubr
          hintmask 1000111000100000
          -105 vlineto
          197 vmoveto
          -111 hlineto
          -1 1 82 107 10 16 9 71 callsubr
          hintmask 0101011010100000
          -389 -293 94 callsubr
          -382 -831 rlineto
          -147 711 rmoveto
          14 21 30 12 32 hhcurveto
          55 16 -25 -23 -31 -43 -20 -54 hvcurveto
          hintmask 1001011100100000
          -26 -84 29 hlineto
          hintmask 1001011001100000
          60 45 -24 -41 -34 -34 -26 -55 -36 -41 15 11 -17 hvcurveto
          -21 -93 rlineto
          -16 25 64 -12 54 hhcurveto
          120 73 62 86 hvcurveto
          hintmask 1001011100100000
          54 -47 50 -59 9 vhcurveto
          3 vlineto
          hintmask 1001011010100000
          49 20 42 37 57 vvcurveto
          76 -67 45 -90 -66 -53 -15 -17 -28 vhcurveto
          endchar
        </CharString>
        <CharString name="threesuperior">
          -50 callsubr
        </CharString>
        <CharString name="tilde">
          -197 726 76 callsubr
          0 410 hintmask 01100000
          127 868 -56 callsubr
          hintmask 10100000
          -72 callsubr
          hintmask 01100000
          22 callsubr
        </CharString>
        <CharString name="trademark">
          393 448 223 30 131 -86 95 hstemhm
          131 118 204 98 295 121 hintmask 00111100
          567 333 rmoveto
          8 16 -2 11 hvcurveto
          hintmask 01011100
          8 -40 108 157 vvcurveto
          12 -2 74 21 10 21 -60 -14 7 vhcurveto
          hintmask 10111100
          -123 58 -22 -56 55 hhcurveto
          55 -25 56 123 55 hvcurveto
          hintmask 01011100
          15 6 25 59 11 hhcurveto
          22 -2 -74 -12 hvcurveto
          -157 -40 -108 -8 vvcurveto
          -11 16 2 20 vhcurveto
          79 hlineto
          20 8 -2 13 4 hvcurveto
          11 31 3 132 39 vvcurveto
          -6 179 -2 22 -5 47 -9 19 rlinecurve
          13 -5 -6 6 -22 hhcurveto
          -47 hlineto
          -25 -10 1 -41 -37 hvcurveto
          hintmask 10111100
          -78 -68 -4 -43 -10 hhcurveto
          -13 -4 43 78 -61 hvcurveto
          hintmask 01011100
          40 -32 -9 0 -25 hhcurveto
          -57 hlineto
          -24 -5 -6 -13 -6 hvcurveto
          -8 -19 -6 -47 -2 -22 -6 -179 rcurveline
          -39 3 -132 11 -31 vhcurveto
          -13 4 9 2 21 hhcurveto
          -255 hmoveto
          8 30 -3 13 hvcurveto
          11 -35 75 155 vvcurveto
          hintmask 00111100
          55 5 107 34 vhcurveto
          47 26 -42 11 hhcurveto
          8 31 57 26 28 -92 26 -105 -88 -88 -22 -11 -6 hvcurveto
          -10 -17 -17 -74 -19 vvcurveto
          -17 3 3 6 vhcurveto
          11 81 62 40 hhcurveto
          10 4 -5 -11 hvcurveto
          -14 -29 -91 -142 vvcurveto
          -174 28 24 18 vhcurveto
          endchar
        </CharString>
        <CharString name="two">
          67 callsubr
          -146 -21 27 160 519 135 hstemhm
          46 167 171 146 -48 52 hintmask 01011100
          hintmask 00111100
          213 183 rmoveto
          107 317 73 248 vvcurveto
          138 -99 77 -136 -142 -90 -120 -51 -11 61 -110 10 vhcurveto
          19 41 157 104 hhcurveto
          61 25 -50 -56 hvcurveto
          hintmask 01011100
          -155 -338 -44 -347 vvcurveto
          -28 7 -26 32 vhcurveto
          25 55 27 50 45 79 -27 49 hhcurveto
          hintmask 01011010
          62 84 70 100 70 -48 56 -8 hvcurveto
          hintmask 10011010
          -11 15 -22 -23 -49 -32 -35 -38 hvcurveto
          hintmask 00111100
          -26 -42 20 -53 -33 -12 -12 -13 hhcurveto
          -9 -11 5 18 hvcurveto
          endchar
        </CharString>
        <CharString name="two.superior">
          -64 callsubr
        </CharString>
        <CharString name="twosuperior">
          -64 callsubr
        </CharString>
        <CharString name="u">
          -85 callsubr
          endchar
        </CharString>
        <CharString name="uacute">
          -85 callsubr
          -222 79 -102 callsubr
        </CharString>
        <CharString name="ucircumflex">
          28 callsubr
          166 112 hstemhm
          31 callsubr
          hintmask 10111100
          -89 callsubr
          hintmask 01111100
          57 callsubr
          hintmask 10111100
          -8 callsubr
          -118 216 -107 callsubr
        </CharString>
        <CharString name="udieresis">
          28 callsubr
          88 160 98 callsubr
          -106 29 callsubr
          -107 135 hintmask 10111001
          -89 callsubr
          hintmask 01111001
          57 callsubr
          hintmask 10111001
          -8 callsubr
          hintmask 10110110
          -74 68 -105 callsubr
        </CharString>
        <CharString name="ugrave">
          -85 callsubr
          -201 221 -97 callsubr
        </CharString>
        <CharString name="underscore">
          -107 -195 89 callsubr
          -195 21 callsubr
          -448 11 callsubr
        </CharString>
        <CharString name="uni00A0">
          -317 endchar
        </CharString>
        <CharString name="uni00AD">
          -23 callsubr
        </CharString>
        <CharString name="uni02C9">
          10 callsubr
        </CharString>
        <CharString name="uni03A9">
          -60 callsubr
        </CharString>
        <CharString name="uni03BC">
          -52 callsubr
        </CharString>
        <CharString name="uni2010">
          -23 callsubr
        </CharString>
        <CharString name="uni2206">
          83 0 130 509 187 hstem
          28 633 vstem
          28 hmoveto
          633 96 hlineto
          -219 730 rlineto
          -184 hlineto
          -230 -733 rlineto
          157 37 rmoveto
          105 314 16 68 29 84 8 43 rlinecurve
          3 hlineto
          10 -50 31 -97 15 -65 97 -297 rcurveline
          endchar
        </CharString>
        <CharString name="uni2215">
          30 callsubr
        </CharString>
        <CharString name="uni2219">
          20 callsubr
        </CharString>
        <CharString name="v">
          -91 86 callsubr
          196 132 vstem
          387 640 rmoveto
          -20 -10 2 -23 hvcurveto
          -31 6 -28 -35 vvcurveto
          -195 -65 -137 -35 -23 -73 97 246 vhcurveto
          44 5 21 23 vvcurveto
          21 -29 -5 -14 vhcurveto
          -77 hlineto
          -27 -4 -2 -29 -456 201 -168 23 33 217 178 420 57 -7 0 -35 hvcurveto
          endchar
        </CharString>
        <CharString name="w">
          115 86 callsubr
          146 121 143 124 vstem
          599 640 rmoveto
          -13 -22 3 -18 hvcurveto
          -26 13 -45 -66 vvcurveto
          -149 -50 -142 -24 -21 -48 115 187 vhcurveto
          52 9 63 12 vvcurveto
          15 -13 -2 -9 1 vhcurveto
          -99 hlineto
          -11 -4 -4 -12 hvcurveto
          -16 6 -55 -36 vvcurveto
          -253 3 -68 -67 -17 hhcurveto
          -17 -47 133 171 hvcurveto
          90 11 25 9 vvcurveto
          15 -11 -1 -12 1 vhcurveto
          -79 hlineto
          -39 -16 12 -121 -330 165 -216 31 28 70 132 23 11 hvcurveto
          8 4 12 27 10 hhcurveto
          12 20 -50 -6 3 hvcurveto
          -25 12 53 -109 28 hhcurveto
          24 197 193 363 101 -7 -2 -40 hvcurveto
          endchar
        </CharString>
        <CharString name="x">
          -97 21 -21 640 -20 hstemhm
          26 135 -123 146 -42 209 -13 146 hintmask 11100100
          446 hmoveto
          37 1 0 52 hvcurveto
          204 -133 44 46 vvcurveto
          hintmask 11001000
          26 114 73 161 vvcurveto
          35 -14 -1 -28 vhcurveto
          -50 hlineto
          -43 8 0 -46 -8 hvcurveto
          hintmask 11010100
          -129 -9 -43 -44 -14 hhcurveto
          -29 -51 81 117 24 -13 -3 -19 hvcurveto
          -73 hlineto
          -34 -7 1 -39 hvcurveto
          hintmask 11001000
          -188 104 -60 -37 vvcurveto
          hintmask 11100100
          -22 -116 -95 -168 vvcurveto
          -36 6 4 28 vhcurveto
          62 hlineto
          39 0 4 42 113 51 81 26 27 73 -88 -131 -24 12 3 21 hvcurveto
          endchar
        </CharString>
        <CharString name="y">
          -39 callsubr
          endchar
        </CharString>
        <CharString name="yacute">
          -39 callsubr
          217 608 -102 callsubr
        </CharString>
        <CharString name="ydieresis">
          -94 67 callsubr
          488 -20 88 78 callsubr
          26 146 -119 29 callsubr
          -103 130 hintmask 11110100
          26 23 rmoveto
          -23 1 -15 23 vhcurveto
          hintmask 11110010
          62 callsubr
          hvcurveto
          -62 callsubr
          hintmask 11101100
          345 597 -105 callsubr
        </CharString>
        <CharString name="yen">
          6 -21 280 102 callsubr
          1 162 -13 178 105 146 hintmask 11101000
          464 811 -3 callsubr
          -97 6 callsubr
          -55 hlineto
          -45 -14 -1 -54 hvcurveto
          -212 139 -118 -26 vvcurveto
          -19 -26 2 -22 -43 -39 3 -25 -31 4 -65 46 vhcurveto
          hintmask 11011000
          15 15 6 6 13 hvcurveto
          5 14 17 6 21 hhcurveto
          33 6 -15 -33 1 hvcurveto
          -22 -45 -46 -114 vvcurveto
          -20 9 -53 22 22 136 8 17 vhcurveto
          30 -11 21 22 vvcurveto
          145 29 60 41 vhcurveto
          35 22 -23 61 hhcurveto
          30 15 0 19 18 -30 81 -33 -43 -32 -4 11 hvcurveto
          42 156 112 214 vvcurveto
          39 -8 14 -40 vhcurveto
          endchar
        </CharString>
        <CharString name="z">
          87 callsubr
          -31 callsubr
          endchar
        </CharString>
        <CharString name="zcaron">
          87 callsubr
          36 112 -31 callsubr
          84 870 -16 callsubr
        </CharString>
        <CharString name="zero">
          55 callsubr
          528 135 hstem
          33 146 222 68 callsubr
          290 -15 rmoveto
          134 123 133 287 287 -123 134 -134 -134 -123 -134 -287 -287 123 -133 134 hvcurveto
          178 vmoveto
          -52 -59 62 196 237 61 33 50 50 61 -33 -237 -196 -59 -62 -52 hvcurveto
          endchar
        </CharString>
</ttFont>
